<?xml version="1.0" encoding="UTF-8" standalone="no"?>
<!DOCTYPE svg PUBLIC "-//W3C//DTD SVG 1.1//EN"
 "http://www.w3.org/Graphics/SVG/1.1/DTD/svg11.dtd">
<!-- Generated by graphviz version 2.40.1 (20161225.0304)
 -->
<!-- Title: %3 Pages: 1 -->
<svg width="914pt" height="782pt"
 viewBox="0.00 0.00 914.00 782.00" xmlns="http://www.w3.org/2000/svg" xmlns:xlink="http://www.w3.org/1999/xlink">
<g id="graph0" class="graph" transform="scale(1 1) rotate(0) translate(4 778)">
<title>%3</title>
<polygon fill="#ffffff" stroke="transparent" points="-4,4 -4,-778 910,-778 910,4 -4,4"/>
<g id="clust2" class="cluster">
<title>cluster_optional</title>
<polygon fill="none" stroke="#000000" stroke-dasharray="1,5" points="8,-8 8,-226 898,-226 898,-8 8,-8"/>
<text text-anchor="middle" x="453" y="-210.8" font-family="Times,serif" font-size="14.00" fill="#000000">Optional steps</text>
</g>
<!-- reads -->
<g id="node1" class="node">
<title>reads</title>
<polygon fill="none" stroke="#000000" points="812.2711,-774 598.6758,-774 543.7289,-738 757.3242,-738 812.2711,-774"/>
<text text-anchor="middle" x="678" y="-751.8" font-family="Times,serif" font-size="14.00" fill="#000000">Linked reads (FASTQ)</text>
</g>
<!-- map -->
<g id="node3" class="node">
<title>map</title>
<polygon fill="none" stroke="#000000" points="654,-702 114,-702 114,-666 654,-666 654,-702"/>
<text text-anchor="middle" x="384" y="-679.8" font-family="Times,serif" font-size="14.00" fill="#000000">Align reads to the draft assembly with BWA&#45;MEM (BAM)</text>
</g>
<!-- reads&#45;&gt;map -->
<g id="edge1" class="edge">
<title>reads&#45;&gt;map</title>
<path fill="none" stroke="#000000" d="M604.1909,-737.9243C562.6099,-727.7412 510.5393,-714.9892 467.4748,-704.4428"/>
<polygon fill="#000000" stroke="#000000" points="468.13,-700.9999 457.5845,-702.0207 466.4649,-707.799 468.13,-700.9999"/>
</g>
<!-- scaffold -->
<g id="node13" class="node">
<title>scaffold</title>
<ellipse fill="none" stroke="#000000" cx="682" cy="-178" rx="201.0286" ry="18"/>
<text text-anchor="middle" x="682" y="-173.8" font-family="Times,serif" font-size="14.00" fill="#000000">Scaffold the assembly with ARCS + LINKS (FASTA)</text>
</g>
<!-- reads&#45;&gt;scaffold -->
<g id="edge13" class="edge">
<title>reads&#45;&gt;scaffold</title>
<path fill="none" stroke="#000000" d="M678.8288,-737.8191C680.0004,-710.5085 682,-657.2675 682,-612 682,-612 682,-612 682,-324 682,-283.3187 682,-236.2612 682,-206.8124"/>
<polygon fill="#000000" stroke="#000000" points="685.5001,-206.4379 682,-196.438 678.5001,-206.438 685.5001,-206.4379"/>
</g>
<!-- draft -->
<g id="node2" class="node">
<title>draft</title>
<polygon fill="none" stroke="#000000" points="521.3427,-774 302.8612,-774 246.6573,-738 465.1388,-738 521.3427,-774"/>
<text text-anchor="middle" x="384" y="-751.8" font-family="Times,serif" font-size="14.00" fill="#000000">Draft genome (FASTA)</text>
</g>
<!-- draft&#45;&gt;map -->
<g id="edge2" class="edge">
<title>draft&#45;&gt;map</title>
<path fill="none" stroke="#000000" d="M384,-737.8314C384,-730.131 384,-720.9743 384,-712.4166"/>
<polygon fill="#000000" stroke="#000000" points="387.5001,-712.4132 384,-702.4133 380.5001,-712.4133 387.5001,-712.4132"/>
</g>
<!-- filter_reads -->
<g id="node4" class="node">
<title>filter_reads</title>
<polygon fill="none" stroke="#000000" points="654,-630 114,-630 114,-594 654,-594 654,-630"/>
<text text-anchor="middle" x="384" y="-608.1418" font-family="Times,serif" font-size="14.00" fill="#000000">Filter the alignments with AS ≥ 100 ∧ NM &lt; 5 (BAM)</text>
</g>
<!-- map&#45;&gt;filter_reads -->
<g id="edge3" class="edge">
<title>map&#45;&gt;filter_reads</title>
<path fill="none" stroke="#000000" d="M384,-665.8314C384,-658.131 384,-648.9743 384,-640.4166"/>
<polygon fill="#000000" stroke="#000000" points="387.5001,-640.4132 384,-630.4133 380.5001,-640.4133 387.5001,-640.4132"/>
</g>
<!-- molecules -->
<g id="node5" class="node">
<title>molecules</title>
<polygon fill="none" stroke="#000000" points="654,-558 114,-558 114,-522 654,-522 654,-558"/>
<text text-anchor="middle" x="384" y="-535.8" font-family="Times,serif" font-size="14.00" fill="#000000">Infer molecules extents from the linked reads (TSV)</text>
</g>
<!-- filter_reads&#45;&gt;molecules -->
<g id="edge4" class="edge">
<title>filter_reads&#45;&gt;molecules</title>
<path fill="none" stroke="#000000" d="M384,-593.8314C384,-586.131 384,-576.9743 384,-568.4166"/>
<polygon fill="#000000" stroke="#000000" points="387.5001,-568.4132 384,-558.4133 380.5001,-568.4133 387.5001,-568.4132"/>
</g>
<!-- filter_molecules -->
<g id="node6" class="node">
<title>filter_molecules</title>
<polygon fill="none" stroke="#000000" points="654,-486 114,-486 114,-450 654,-450 654,-486"/>
<text text-anchor="middle" x="384" y="-463.8" font-family="Times,serif" font-size="14.00" fill="#000000">Filter out unusually small molecules with size &lt; 2000 bp (TSV)</text>
</g>
<!-- molecules&#45;&gt;filter_molecules -->
<g id="edge5" class="edge">
<title>molecules&#45;&gt;filter_molecules</title>
<path fill="none" stroke="#000000" d="M384,-521.8314C384,-514.131 384,-504.9743 384,-496.4166"/>
<polygon fill="#000000" stroke="#000000" points="387.5001,-496.4132 384,-486.4133 380.5001,-496.4133 387.5001,-496.4132"/>
</g>
<!-- depth -->
<g id="node7" class="node">
<title>depth</title>
<polygon fill="none" stroke="#000000" points="654,-414 114,-414 114,-378 654,-378 654,-414"/>
<text text-anchor="middle" x="384" y="-391.8" font-family="Times,serif" font-size="14.00" fill="#000000">Compute molecule depth of coverage with bedtools genomecov (TSV)</text>
</g>
<!-- filter_molecules&#45;&gt;depth -->
<g id="edge6" class="edge">
<title>filter_molecules&#45;&gt;depth</title>
<path fill="none" stroke="#000000" d="M384,-449.8314C384,-442.131 384,-432.9743 384,-424.4166"/>
<polygon fill="#000000" stroke="#000000" points="387.5001,-424.4132 384,-414.4133 380.5001,-424.4133 387.5001,-424.4132"/>
</g>
<!-- breakpoints -->
<g id="node8" class="node">
<title>breakpoints</title>
<polygon fill="none" stroke="#000000" points="654,-342 114,-342 114,-306 654,-306 654,-342"/>
<text text-anchor="middle" x="384" y="-320.1418" font-family="Times,serif" font-size="14.00" fill="#000000">Identify breakpoints with molecule_depth &lt; median &#45; 2 · IQR ∧ molecule_starts ≥ 2 (TSV)</text>
</g>
<!-- depth&#45;&gt;breakpoints -->
<g id="edge7" class="edge">
<title>depth&#45;&gt;breakpoints</title>
<path fill="none" stroke="#000000" d="M384,-377.8314C384,-370.131 384,-360.9743 384,-352.4166"/>
<polygon fill="#000000" stroke="#000000" points="387.5001,-352.4132 384,-342.4133 380.5001,-352.4133 387.5001,-352.4132"/>
</g>
<!-- tigs -->
<g id="node9" class="node">
<title>tigs</title>
<ellipse fill="none" stroke="#000000" cx="384" cy="-252" rx="114.7021" ry="18"/>
<text text-anchor="middle" x="384" y="-247.8" font-family="Times,serif" font-size="14.00" fill="#000000">Corrected assembly (FASTA)</text>
</g>
<!-- breakpoints&#45;&gt;tigs -->
<g id="edge8" class="edge">
<title>breakpoints&#45;&gt;tigs</title>
<path fill="none" stroke="#000000" d="M384,-305.8314C384,-298.131 384,-288.9743 384,-280.4166"/>
<polygon fill="#000000" stroke="#000000" points="387.5001,-280.4132 384,-270.4133 380.5001,-280.4133 387.5001,-280.4132"/>
</g>
<!-- tigs_align -->
<g id="node11" class="node">
<title>tigs_align</title>
<polygon fill="none" stroke="#000000" points="422.3273,-124 37.6727,-124 37.6727,-88 422.3273,-88 422.3273,-124"/>
<text text-anchor="middle" x="230" y="-101.8" font-family="Times,serif" font-size="14.00" fill="#000000">Align scaffolds to the reference genome with BWA&#45;MEM (SAM)</text>
</g>
<!-- tigs&#45;&gt;tigs_align -->
<g id="edge10" class="edge">
<title>tigs&#45;&gt;tigs_align</title>
<path fill="none" stroke="#000000" d="M272.5471,-247.521C208.2244,-243.7563 138.0708,-237.1454 128,-226 108.334,-204.2355 112.8697,-185.13 128,-160 135.9694,-146.7637 148.392,-136.6019 161.862,-128.8634"/>
<polygon fill="#000000" stroke="#000000" points="163.626,-131.8899 170.8288,-124.12 160.3528,-125.7023 163.626,-131.8899"/>
</g>
<!-- tigs&#45;&gt;scaffold -->
<g id="edge12" class="edge">
<title>tigs&#45;&gt;scaffold</title>
<path fill="none" stroke="#000000" d="M445.3845,-236.7569C491.3077,-225.3531 554.4529,-209.6728 603.9612,-197.3788"/>
<polygon fill="#000000" stroke="#000000" points="604.8101,-200.7743 613.6718,-194.9674 603.1231,-193.9807 604.8101,-200.7743"/>
</g>
<!-- reference -->
<g id="node10" class="node">
<title>reference</title>
<polygon fill="none" stroke="#000000" points="462.7134,-196 203.8728,-196 137.2866,-160 396.1272,-160 462.7134,-196"/>
<text text-anchor="middle" x="300" y="-173.8" font-family="Times,serif" font-size="14.00" fill="#000000">Reference genome (FASTA)</text>
</g>
<!-- reference&#45;&gt;tigs_align -->
<g id="edge9" class="edge">
<title>reference&#45;&gt;tigs_align</title>
<path fill="none" stroke="#000000" d="M282.336,-159.8314C274.0268,-151.2848 263.9736,-140.9443 254.9082,-131.6198"/>
<polygon fill="#000000" stroke="#000000" points="257.3821,-129.1435 247.9018,-124.4133 252.3631,-134.023 257.3821,-129.1435"/>
</g>
<!-- scaffold_align -->
<g id="node14" class="node">
<title>scaffold_align</title>
<polygon fill="none" stroke="#000000" points="868.3273,-124 483.6727,-124 483.6727,-88 868.3273,-88 868.3273,-124"/>
<text text-anchor="middle" x="676" y="-101.8" font-family="Times,serif" font-size="14.00" fill="#000000">Align scaffolds to the reference genome with BWA&#45;MEM (SAM)</text>
</g>
<!-- reference&#45;&gt;scaffold_align -->
<g id="edge14" class="edge">
<title>reference&#45;&gt;scaffold_align</title>
<path fill="none" stroke="#000000" d="M394.3953,-159.9243C448.4694,-149.5697 516.4144,-136.5589 572.016,-125.9118"/>
<polygon fill="#000000" stroke="#000000" points="572.7287,-129.339 581.892,-124.0207 571.4122,-122.4639 572.7287,-129.339"/>
</g>
<!-- tigs_metrics -->
<g id="node12" class="node">
<title>tigs_metrics</title>
<ellipse fill="none" stroke="#000000" cx="230" cy="-34" rx="214.4124" ry="18"/>
<text text-anchor="middle" x="230" y="-29.8" font-family="Times,serif" font-size="14.00" fill="#000000">Compute assembly metrics with abyss&#45;samtobreak (TSV)</text>
</g>
<!-- tigs_align&#45;&gt;tigs_metrics -->
<g id="edge11" class="edge">
<title>tigs_align&#45;&gt;tigs_metrics</title>
<path fill="none" stroke="#000000" d="M230,-87.8314C230,-80.131 230,-70.9743 230,-62.4166"/>
<polygon fill="#000000" stroke="#000000" points="233.5001,-62.4132 230,-52.4133 226.5001,-62.4133 233.5001,-62.4132"/>
</g>
<!-- scaffold&#45;&gt;scaffold_align -->
<g id="edge15" class="edge">
<title>scaffold&#45;&gt;scaffold_align</title>
<path fill="none" stroke="#000000" d="M680.4859,-159.8314C679.8442,-152.131 679.0812,-142.9743 678.3681,-134.4166"/>
<polygon fill="#000000" stroke="#000000" points="681.8529,-134.088 677.5344,-124.4133 674.8771,-134.6694 681.8529,-134.088"/>
</g>
<!-- scaffold_metrics -->
<g id="node15" class="node">
<title>scaffold_metrics</title>
<ellipse fill="none" stroke="#000000" cx="676" cy="-34" rx="214.4124" ry="18"/>
<text text-anchor="middle" x="676" y="-29.8" font-family="Times,serif" font-size="14.00" fill="#000000">Compute assembly metrics with abyss&#45;samtobreak (TSV)</text>
</g>
<!-- scaffold_align&#45;&gt;scaffold_metrics -->
<g id="edge16" class="edge">
<title>scaffold_align&#45;&gt;scaffold_metrics</title>
<path fill="none" stroke="#000000" d="M676,-87.8314C676,-80.131 676,-70.9743 676,-62.4166"/>
<polygon fill="#000000" stroke="#000000" points="679.5001,-62.4132 676,-52.4133 672.5001,-62.4133 679.5001,-62.4132"/>
</g>
</g>
</svg>
