<?xml version="1.0" encoding="UTF-8" standalone="no"?>
<!DOCTYPE svg PUBLIC "-//W3C//DTD SVG 1.1//EN"
 "http://www.w3.org/Graphics/SVG/1.1/DTD/svg11.dtd">
<!-- Generated by graphviz version 2.43.0 (0)
 -->
<!-- Title: %3 Pages: 1 -->
<svg width="1026pt" height="625pt"
 viewBox="0.00 0.00 1025.76 625.14" xmlns="http://www.w3.org/2000/svg" xmlns:xlink="http://www.w3.org/1999/xlink">
<g id="graph0" class="graph" transform="scale(1 1) rotate(0) translate(4 621.14)">
<title>%3</title>
<polygon fill="white" stroke="transparent" points="-4,4 -4,-621.14 1021.76,-621.14 1021.76,4 -4,4"/>
<g id="clust3" class="cluster">
<title>cluster_optional</title>
<polygon fill="none" stroke="black" stroke-dasharray="1,5" points="355.76,-8 355.76,-197.14 1009.76,-197.14 1009.76,-8 355.76,-8"/>
<text text-anchor="middle" x="961.26" y="-180.54" font-family="Times,serif" font-size="14.00">Optional steps</text>
</g>
<!-- long_reads -->
<g id="node1" class="node">
<title>long_reads</title>
<polygon fill="none" stroke="black" points="387.28,-617.14 79.43,-617.14 0.24,-581.14 308.09,-581.14 387.28,-617.14"/>
<text text-anchor="middle" x="193.76" y="-594.54" font-family="Times,serif" font-size="14.00">Long reads (FASTA or FASTQ)</text>
</g>
<!-- cut -->
<g id="node7" class="node">
<title>cut</title>
<polygon fill="none" stroke="black" points="373.76,-545.14 13.76,-545.14 13.76,-505.14 373.76,-505.14 373.76,-545.14"/>
<text text-anchor="middle" x="193.76" y="-528.54" font-family="Times,serif" font-size="14.00">long&#45;to&#45;linked</text>
<text text-anchor="middle" x="193.76" y="-512.54" font-family="Times,serif" font-size="14.00">Segment long reads (FASTA)</text>
</g>
<!-- long_reads&#45;&gt;cut -->
<g id="edge6" class="edge">
<title>long_reads&#45;&gt;cut</title>
<path fill="none" stroke="black" d="M193.76,-581.07C193.76,-573.45 193.76,-564.23 193.76,-555.55"/>
<polygon fill="black" stroke="black" points="197.26,-555.36 193.76,-545.36 190.26,-555.36 197.26,-555.36"/>
</g>
<!-- linked_reads -->
<g id="node2" class="node">
<title>linked_reads</title>
<polygon fill="none" stroke="black" points="1008.46,-543.14 779.87,-543.14 721.06,-507.14 949.65,-507.14 1008.46,-543.14"/>
<text text-anchor="middle" x="864.76" y="-520.54" font-family="Times,serif" font-size="14.00">Linked reads (FASTQ)</text>
</g>
<!-- bwa -->
<g id="node4" class="node">
<title>bwa</title>
<polygon fill="none" stroke="black" points="751.76,-469.14 391.76,-469.14 391.76,-429.14 751.76,-429.14 751.76,-469.14"/>
<text text-anchor="middle" x="571.76" y="-452.54" font-family="Times,serif" font-size="14.00">BWA&#45;MEM</text>
<text text-anchor="middle" x="571.76" y="-436.54" font-family="Times,serif" font-size="14.00">Align reads to the draft assembly (BAM)</text>
</g>
<!-- linked_reads&#45;&gt;bwa -->
<g id="edge1" class="edge">
<title>linked_reads&#45;&gt;bwa</title>
<path fill="none" stroke="black" d="M797.17,-507.07C755.46,-496.53 701.57,-482.92 656.95,-471.65"/>
<polygon fill="black" stroke="black" points="657.55,-468.19 646.99,-469.14 655.83,-474.98 657.55,-468.19"/>
</g>
<!-- scaffold -->
<g id="node12" class="node">
<title>scaffold</title>
<ellipse fill="none" stroke="black" cx="864.76" cy="-136.85" rx="137.36" ry="28.07"/>
<text text-anchor="middle" x="864.76" y="-140.25" font-family="Times,serif" font-size="14.00">ARCS</text>
<text text-anchor="middle" x="864.76" y="-124.25" font-family="Times,serif" font-size="14.00">Scaffold the assembly (FASTA)</text>
</g>
<!-- linked_reads&#45;&gt;scaffold -->
<g id="edge12" class="edge">
<title>linked_reads&#45;&gt;scaffold</title>
<path fill="none" stroke="black" d="M864.76,-507.04C864.76,-479.2 864.76,-422.31 864.76,-374.14 864.76,-374.14 864.76,-374.14 864.76,-296.14 864.76,-254.91 864.76,-207.63 864.76,-175.57"/>
<polygon fill="black" stroke="black" points="868.26,-175.3 864.76,-165.3 861.26,-175.3 868.26,-175.3"/>
</g>
<!-- draft -->
<g id="node3" class="node">
<title>draft</title>
<polygon fill="none" stroke="black" points="703.32,-543.14 468.58,-543.14 408.19,-507.14 642.94,-507.14 703.32,-543.14"/>
<text text-anchor="middle" x="555.76" y="-520.54" font-family="Times,serif" font-size="14.00">Draft genome (FASTA)</text>
</g>
<!-- draft&#45;&gt;bwa -->
<g id="edge2" class="edge">
<title>draft&#45;&gt;bwa</title>
<path fill="none" stroke="black" d="M559.47,-506.97C561.26,-498.7 563.46,-488.54 565.49,-479.11"/>
<polygon fill="black" stroke="black" points="568.93,-479.8 567.62,-469.29 562.08,-478.32 568.93,-479.8"/>
</g>
<!-- molecules -->
<g id="node5" class="node">
<title>molecules</title>
<polygon fill="none" stroke="black" points="641.76,-393.14 281.76,-393.14 281.76,-353.14 641.76,-353.14 641.76,-393.14"/>
<text text-anchor="middle" x="461.76" y="-376.54" font-family="Times,serif" font-size="14.00">tigmint&#45;molecule</text>
<text text-anchor="middle" x="461.76" y="-360.54" font-family="Times,serif" font-size="14.00">Infer molecules extents from the linked reads (BED)</text>
</g>
<!-- bwa&#45;&gt;molecules -->
<g id="edge3" class="edge">
<title>bwa&#45;&gt;molecules</title>
<path fill="none" stroke="black" d="M543.43,-429.08C529.81,-419.92 513.31,-408.81 498.71,-399"/>
<polygon fill="black" stroke="black" points="500.62,-396.06 490.37,-393.39 496.72,-401.87 500.62,-396.06"/>
</g>
<!-- breakpoints -->
<g id="node6" class="node">
<title>breakpoints</title>
<polygon fill="none" stroke="black" points="641.76,-317.14 281.76,-317.14 281.76,-277.14 641.76,-277.14 641.76,-317.14"/>
<text text-anchor="middle" x="461.76" y="-300.54" font-family="Times,serif" font-size="14.00">tigmint&#45;cut</text>
<text text-anchor="middle" x="461.76" y="-284.54" font-family="Times,serif" font-size="14.00">Identify regions poorly supported by molecules (BED)</text>
</g>
<!-- molecules&#45;&gt;breakpoints -->
<g id="edge4" class="edge">
<title>molecules&#45;&gt;breakpoints</title>
<path fill="none" stroke="black" d="M461.76,-353.08C461.76,-345.29 461.76,-336.09 461.76,-327.48"/>
<polygon fill="black" stroke="black" points="465.26,-327.39 461.76,-317.39 458.26,-327.39 465.26,-327.39"/>
</g>
<!-- tigs -->
<g id="node9" class="node">
<title>tigs</title>
<ellipse fill="none" stroke="black" cx="461.76" cy="-223.14" rx="122.18" ry="18"/>
<text text-anchor="middle" x="461.76" y="-218.54" font-family="Times,serif" font-size="14.00">Corrected assembly (FASTA)</text>
</g>
<!-- breakpoints&#45;&gt;tigs -->
<g id="edge5" class="edge">
<title>breakpoints&#45;&gt;tigs</title>
<path fill="none" stroke="black" d="M461.76,-276.84C461.76,-269.11 461.76,-260.06 461.76,-251.66"/>
<polygon fill="black" stroke="black" points="465.26,-251.51 461.76,-241.51 458.26,-251.51 465.26,-251.51"/>
</g>
<!-- minimap2 -->
<g id="node8" class="node">
<title>minimap2</title>
<polygon fill="none" stroke="black" points="373.76,-469.14 13.76,-469.14 13.76,-429.14 373.76,-429.14 373.76,-469.14"/>
<text text-anchor="middle" x="193.76" y="-452.54" font-family="Times,serif" font-size="14.00">Minimap2</text>
<text text-anchor="middle" x="193.76" y="-436.54" font-family="Times,serif" font-size="14.00">Align segmented reads to the draft assembly (BAM)</text>
</g>
<!-- cut&#45;&gt;minimap2 -->
<g id="edge7" class="edge">
<title>cut&#45;&gt;minimap2</title>
<path fill="none" stroke="black" d="M193.76,-505.08C193.76,-497.29 193.76,-488.09 193.76,-479.48"/>
<polygon fill="black" stroke="black" points="197.26,-479.39 193.76,-469.39 190.26,-479.39 197.26,-479.39"/>
</g>
<!-- minimap2&#45;&gt;molecules -->
<g id="edge8" class="edge">
<title>minimap2&#45;&gt;molecules</title>
<path fill="none" stroke="black" d="M262.78,-429.08C299.36,-418.98 344.48,-406.52 382.5,-396.02"/>
<polygon fill="black" stroke="black" points="383.8,-399.29 392.51,-393.26 381.94,-392.55 383.8,-399.29"/>
</g>
<!-- tigs_metrics -->
<g id="node11" class="node">
<title>tigs_metrics</title>
<ellipse fill="none" stroke="black" cx="522.76" cy="-44.28" rx="145.83" ry="28.07"/>
<text text-anchor="middle" x="522.76" y="-47.68" font-family="Times,serif" font-size="14.00">QUAST</text>
<text text-anchor="middle" x="522.76" y="-31.68" font-family="Times,serif" font-size="14.00">Compute assembly metrics (TSV)</text>
</g>
<!-- tigs&#45;&gt;tigs_metrics -->
<g id="edge10" class="edge">
<title>tigs&#45;&gt;tigs_metrics</title>
<path fill="none" stroke="black" d="M379.92,-209.71C368.23,-206.36 358.79,-202.22 354.76,-197.14 330.3,-166.3 332.36,-140.94 354.76,-108.57 367.58,-90.04 386.56,-76.93 407.2,-67.65"/>
<polygon fill="black" stroke="black" points="408.58,-70.87 416.45,-63.78 405.88,-64.41 408.58,-70.87"/>
</g>
<!-- tigs&#45;&gt;scaffold -->
<g id="edge11" class="edge">
<title>tigs&#45;&gt;scaffold</title>
<path fill="none" stroke="black" d="M578.74,-217.9C623.07,-214.44 673.71,-208.23 718.76,-197.14 747.5,-190.06 778.04,-178.38 803.71,-167.24"/>
<polygon fill="black" stroke="black" points="805.19,-170.41 812.93,-163.17 802.37,-164 805.19,-170.41"/>
</g>
<!-- reference -->
<g id="node10" class="node">
<title>reference</title>
<polygon fill="none" stroke="black" points="709.97,-154.85 434.43,-154.85 363.55,-118.85 639.09,-118.85 709.97,-154.85"/>
<text text-anchor="middle" x="536.76" y="-132.25" font-family="Times,serif" font-size="14.00">Reference genome (FASTA)</text>
</g>
<!-- reference&#45;&gt;tigs_metrics -->
<g id="edge9" class="edge">
<title>reference&#45;&gt;tigs_metrics</title>
<path fill="none" stroke="black" d="M534.13,-118.82C532.55,-108.65 530.49,-95.32 528.56,-82.8"/>
<polygon fill="black" stroke="black" points="531.96,-81.92 526.98,-72.57 525.05,-82.98 531.96,-81.92"/>
</g>
<!-- scaffold_metrics -->
<g id="node13" class="node">
<title>scaffold_metrics</title>
<ellipse fill="none" stroke="black" cx="843.76" cy="-44.28" rx="145.83" ry="28.07"/>
<text text-anchor="middle" x="843.76" y="-47.68" font-family="Times,serif" font-size="14.00">QUAST</text>
<text text-anchor="middle" x="843.76" y="-31.68" font-family="Times,serif" font-size="14.00">Compute assembly metrics (TSV)</text>
</g>
<!-- reference&#45;&gt;scaffold_metrics -->
<g id="edge13" class="edge">
<title>reference&#45;&gt;scaffold_metrics</title>
<path fill="none" stroke="black" d="M594.5,-118.82C640.03,-105.39 704.27,-86.44 756.13,-71.14"/>
<polygon fill="black" stroke="black" points="757.39,-74.41 765.99,-68.23 755.41,-67.7 757.39,-74.41"/>
</g>
<!-- scaffold&#45;&gt;scaffold_metrics -->
<g id="edge14" class="edge">
<title>scaffold&#45;&gt;scaffold_metrics</title>
<path fill="none" stroke="black" d="M858.34,-108.19C856.47,-100.11 854.39,-91.15 852.41,-82.58"/>
<polygon fill="black" stroke="black" points="855.8,-81.73 850.13,-72.78 848.98,-83.31 855.8,-81.73"/>
</g>
</g>
</svg>
