<?xml version="1.0" encoding="UTF-8" standalone="no"?>
<!DOCTYPE svg PUBLIC "-//W3C//DTD SVG 1.1//EN"
 "http://www.w3.org/Graphics/SVG/1.1/DTD/svg11.dtd">
<!-- Generated by graphviz version 2.43.0 (0)
 -->
<!-- Title: %3 Pages: 1 -->
<svg width="1018pt" height="625pt"
 viewBox="0.00 0.00 1017.79 625.14" xmlns="http://www.w3.org/2000/svg" xmlns:xlink="http://www.w3.org/1999/xlink">
<g id="graph0" class="graph" transform="scale(1 1) rotate(0) translate(4 621.14)">
<title>%3</title>
<polygon fill="white" stroke="transparent" points="-4,4 -4,-621.14 1013.79,-621.14 1013.79,4 -4,4"/>
<g id="clust3" class="cluster">
<title>cluster_optional</title>
<polygon fill="none" stroke="black" stroke-dasharray="1,5" points="352.79,-8 352.79,-197.14 1001.79,-197.14 1001.79,-8 352.79,-8"/>
<text text-anchor="middle" x="953.79" y="-180.54" font-family="Times,serif" font-size="14.00">Optional steps</text>
</g>
<!-- long_reads -->
<g id="node1" class="node">
<title>long_reads</title>
<polygon fill="none" stroke="black" points="383.38,-617.14 78.61,-617.14 0.21,-581.14 304.98,-581.14 383.38,-617.14"/>
<text text-anchor="middle" x="191.79" y="-594.54" font-family="Times,serif" font-size="14.00">Long reads (FASTA or FASTQ)</text>
</g>
<!-- cut -->
<g id="node7" class="node">
<title>cut</title>
<polygon fill="none" stroke="black" points="371.79,-545.14 11.79,-545.14 11.79,-505.14 371.79,-505.14 371.79,-545.14"/>
<text text-anchor="middle" x="191.79" y="-528.54" font-family="Times,serif" font-size="14.00">long&#45;to&#45;linked</text>
<text text-anchor="middle" x="191.79" y="-512.54" font-family="Times,serif" font-size="14.00">Segment long reads (FASTQ)</text>
</g>
<!-- long_reads&#45;&gt;cut -->
<g id="edge6" class="edge">
<title>long_reads&#45;&gt;cut</title>
<path fill="none" stroke="black" d="M191.79,-581.07C191.79,-573.45 191.79,-564.23 191.79,-555.55"/>
<polygon fill="black" stroke="black" points="195.29,-555.36 191.79,-545.36 188.29,-555.36 195.29,-555.36"/>
</g>
<!-- linked_reads -->
<g id="node2" class="node">
<title>linked_reads</title>
<polygon fill="none" stroke="black" points="999.55,-543.14 774.04,-543.14 716.03,-507.14 941.54,-507.14 999.55,-543.14"/>
<text text-anchor="middle" x="857.79" y="-520.54" font-family="Times,serif" font-size="14.00">Linked reads (FASTQ)</text>
</g>
<!-- bwa -->
<g id="node4" class="node">
<title>bwa</title>
<polygon fill="none" stroke="black" points="749.79,-469.14 389.79,-469.14 389.79,-429.14 749.79,-429.14 749.79,-469.14"/>
<text text-anchor="middle" x="569.79" y="-452.54" font-family="Times,serif" font-size="14.00">BWA&#45;MEM</text>
<text text-anchor="middle" x="569.79" y="-436.54" font-family="Times,serif" font-size="14.00">Align reads to the draft assembly (BAM)</text>
</g>
<!-- linked_reads&#45;&gt;bwa -->
<g id="edge1" class="edge">
<title>linked_reads&#45;&gt;bwa</title>
<path fill="none" stroke="black" d="M791.36,-507.07C750.35,-496.53 697.39,-482.92 653.53,-471.65"/>
<polygon fill="black" stroke="black" points="654.3,-468.24 643.74,-469.14 652.56,-475.02 654.3,-468.24"/>
</g>
<!-- scaffold -->
<g id="node12" class="node">
<title>scaffold</title>
<ellipse fill="none" stroke="black" cx="857.79" cy="-136.85" rx="136.44" ry="28.07"/>
<text text-anchor="middle" x="857.79" y="-140.25" font-family="Times,serif" font-size="14.00">ARCS</text>
<text text-anchor="middle" x="857.79" y="-124.25" font-family="Times,serif" font-size="14.00">Scaffold the assembly (FASTA)</text>
</g>
<!-- linked_reads&#45;&gt;scaffold -->
<g id="edge12" class="edge">
<title>linked_reads&#45;&gt;scaffold</title>
<path fill="none" stroke="black" d="M857.79,-507.04C857.79,-479.2 857.79,-422.31 857.79,-374.14 857.79,-374.14 857.79,-374.14 857.79,-296.14 857.79,-254.91 857.79,-207.63 857.79,-175.57"/>
<polygon fill="black" stroke="black" points="861.29,-175.3 857.79,-165.3 854.29,-175.3 861.29,-175.3"/>
</g>
<!-- draft -->
<g id="node3" class="node">
<title>draft</title>
<polygon fill="none" stroke="black" points="698.42,-543.14 466.76,-543.14 407.16,-507.14 638.83,-507.14 698.42,-543.14"/>
<text text-anchor="middle" x="552.79" y="-520.54" font-family="Times,serif" font-size="14.00">Draft genome (FASTA)</text>
</g>
<!-- draft&#45;&gt;bwa -->
<g id="edge2" class="edge">
<title>draft&#45;&gt;bwa</title>
<path fill="none" stroke="black" d="M556.74,-506.97C558.64,-498.7 560.97,-488.54 563.14,-479.11"/>
<polygon fill="black" stroke="black" points="566.56,-479.82 565.39,-469.29 559.74,-478.25 566.56,-479.82"/>
</g>
<!-- molecules -->
<g id="node5" class="node">
<title>molecules</title>
<polygon fill="none" stroke="black" points="639.79,-393.14 279.79,-393.14 279.79,-353.14 639.79,-353.14 639.79,-393.14"/>
<text text-anchor="middle" x="459.79" y="-376.54" font-family="Times,serif" font-size="14.00">tigmint&#45;molecule</text>
<text text-anchor="middle" x="459.79" y="-360.54" font-family="Times,serif" font-size="14.00">Infer molecules extents from the linked reads (BED)</text>
</g>
<!-- bwa&#45;&gt;molecules -->
<g id="edge3" class="edge">
<title>bwa&#45;&gt;molecules</title>
<path fill="none" stroke="black" d="M541.46,-429.08C527.84,-419.92 511.34,-408.81 496.74,-399"/>
<polygon fill="black" stroke="black" points="498.66,-396.06 488.41,-393.39 494.75,-401.87 498.66,-396.06"/>
</g>
<!-- breakpoints -->
<g id="node6" class="node">
<title>breakpoints</title>
<polygon fill="none" stroke="black" points="639.79,-317.14 279.79,-317.14 279.79,-277.14 639.79,-277.14 639.79,-317.14"/>
<text text-anchor="middle" x="459.79" y="-300.54" font-family="Times,serif" font-size="14.00">tigmint&#45;cut</text>
<text text-anchor="middle" x="459.79" y="-284.54" font-family="Times,serif" font-size="14.00">Identify regions poorly supported by molecules (BED)</text>
</g>
<!-- molecules&#45;&gt;breakpoints -->
<g id="edge4" class="edge">
<title>molecules&#45;&gt;breakpoints</title>
<path fill="none" stroke="black" d="M459.79,-353.08C459.79,-345.29 459.79,-336.09 459.79,-327.48"/>
<polygon fill="black" stroke="black" points="463.29,-327.39 459.79,-317.39 456.29,-327.39 463.29,-327.39"/>
</g>
<!-- tigs -->
<g id="node9" class="node">
<title>tigs</title>
<ellipse fill="none" stroke="black" cx="459.79" cy="-223.14" rx="121.34" ry="18"/>
<text text-anchor="middle" x="459.79" y="-218.54" font-family="Times,serif" font-size="14.00">Corrected assembly (FASTA)</text>
</g>
<!-- breakpoints&#45;&gt;tigs -->
<g id="edge5" class="edge">
<title>breakpoints&#45;&gt;tigs</title>
<path fill="none" stroke="black" d="M459.79,-276.84C459.79,-269.11 459.79,-260.06 459.79,-251.66"/>
<polygon fill="black" stroke="black" points="463.29,-251.51 459.79,-241.51 456.29,-251.51 463.29,-251.51"/>
</g>
<!-- minimap2 -->
<g id="node8" class="node">
<title>minimap2</title>
<polygon fill="none" stroke="black" points="371.79,-469.14 11.79,-469.14 11.79,-429.14 371.79,-429.14 371.79,-469.14"/>
<text text-anchor="middle" x="191.79" y="-452.54" font-family="Times,serif" font-size="14.00">Minimap2</text>
<text text-anchor="middle" x="191.79" y="-436.54" font-family="Times,serif" font-size="14.00">Align segmented reads to the draft assembly (BAM)</text>
</g>
<!-- cut&#45;&gt;minimap2 -->
<g id="edge7" class="edge">
<title>cut&#45;&gt;minimap2</title>
<path fill="none" stroke="black" d="M191.79,-505.08C191.79,-497.29 191.79,-488.09 191.79,-479.48"/>
<polygon fill="black" stroke="black" points="195.29,-479.39 191.79,-469.39 188.29,-479.39 195.29,-479.39"/>
</g>
<!-- minimap2&#45;&gt;molecules -->
<g id="edge8" class="edge">
<title>minimap2&#45;&gt;molecules</title>
<path fill="none" stroke="black" d="M260.81,-429.08C297.4,-418.98 342.52,-406.52 380.53,-396.02"/>
<polygon fill="black" stroke="black" points="381.84,-399.29 390.54,-393.26 379.97,-392.55 381.84,-399.29"/>
</g>
<!-- tigs_metrics -->
<g id="node11" class="node">
<title>tigs_metrics</title>
<ellipse fill="none" stroke="black" cx="518.79" cy="-44.28" rx="144.91" ry="28.07"/>
<text text-anchor="middle" x="518.79" y="-47.68" font-family="Times,serif" font-size="14.00">QUAST</text>
<text text-anchor="middle" x="518.79" y="-31.68" font-family="Times,serif" font-size="14.00">Compute assembly metrics (TSV)</text>
</g>
<!-- tigs&#45;&gt;tigs_metrics -->
<g id="edge10" class="edge">
<title>tigs&#45;&gt;tigs_metrics</title>
<path fill="none" stroke="black" d="M377.45,-209.85C365.53,-206.49 355.89,-202.3 351.79,-197.14 327.3,-166.32 329.43,-140.96 351.79,-108.57 364.61,-90.01 383.62,-76.89 404.28,-67.61"/>
<polygon fill="black" stroke="black" points="405.66,-70.83 413.54,-63.74 402.96,-64.37 405.66,-70.83"/>
</g>
<!-- tigs&#45;&gt;scaffold -->
<g id="edge11" class="edge">
<title>tigs&#45;&gt;scaffold</title>
<path fill="none" stroke="black" d="M575.44,-217.64C618.69,-214.14 667.94,-207.98 711.79,-197.14 740.53,-190.03 771.06,-178.34 796.73,-167.21"/>
<polygon fill="black" stroke="black" points="798.22,-170.38 805.96,-163.15 795.4,-163.98 798.22,-170.38"/>
</g>
<!-- reference -->
<g id="node10" class="node">
<title>reference</title>
<polygon fill="none" stroke="black" points="703.07,-154.85 430.61,-154.85 360.52,-118.85 632.98,-118.85 703.07,-154.85"/>
<text text-anchor="middle" x="531.79" y="-132.25" font-family="Times,serif" font-size="14.00">Reference genome (FASTA)</text>
</g>
<!-- reference&#45;&gt;tigs_metrics -->
<g id="edge9" class="edge">
<title>reference&#45;&gt;tigs_metrics</title>
<path fill="none" stroke="black" d="M529.35,-118.82C527.89,-108.65 525.97,-95.32 524.18,-82.8"/>
<polygon fill="black" stroke="black" points="527.59,-81.97 522.71,-72.57 520.66,-82.96 527.59,-81.97"/>
</g>
<!-- scaffold_metrics -->
<g id="node13" class="node">
<title>scaffold_metrics</title>
<ellipse fill="none" stroke="black" cx="837.79" cy="-44.28" rx="144.91" ry="28.07"/>
<text text-anchor="middle" x="837.79" y="-47.68" font-family="Times,serif" font-size="14.00">QUAST</text>
<text text-anchor="middle" x="837.79" y="-31.68" font-family="Times,serif" font-size="14.00">Compute assembly metrics (TSV)</text>
</g>
<!-- reference&#45;&gt;scaffold_metrics -->
<g id="edge13" class="edge">
<title>reference&#45;&gt;scaffold_metrics</title>
<path fill="none" stroke="black" d="M589.35,-118.82C634.73,-105.39 698.75,-86.44 750.44,-71.14"/>
<polygon fill="black" stroke="black" points="751.68,-74.42 760.28,-68.23 749.69,-67.71 751.68,-74.42"/>
</g>
<!-- scaffold&#45;&gt;scaffold_metrics -->
<g id="edge14" class="edge">
<title>scaffold&#45;&gt;scaffold_metrics</title>
<path fill="none" stroke="black" d="M851.68,-108.19C849.9,-100.11 847.92,-91.15 846.03,-82.58"/>
<polygon fill="black" stroke="black" points="849.44,-81.79 843.86,-72.78 842.6,-83.3 849.44,-81.79"/>
</g>
</g>
</svg>
