<?xml version="1.0" encoding="UTF-8" standalone="no"?>
<!DOCTYPE svg PUBLIC "-//W3C//DTD SVG 1.1//EN"
 "http://www.w3.org/Graphics/SVG/1.1/DTD/svg11.dtd">
<!-- Generated by graphviz version 2.40.1 (20161225.0304)
 -->
<!-- Title: %3 Pages: 1 -->
<svg width="858pt" height="494pt"
 viewBox="0.00 0.00 858.18 494.00" xmlns="http://www.w3.org/2000/svg" xmlns:xlink="http://www.w3.org/1999/xlink">
<g id="graph0" class="graph" transform="scale(1 1) rotate(0) translate(4 490)">
<title>%3</title>
<polygon fill="#ffffff" stroke="transparent" points="-4,4 -4,-490 854.1771,-490 854.1771,4 -4,4"/>
<g id="clust2" class="cluster">
<title>cluster_optional</title>
<polygon fill="none" stroke="#000000" stroke-dasharray="1,5" points="15.1771,-8 15.1771,-154 842.1771,-154 842.1771,-8 15.1771,-8"/>
<text text-anchor="middle" x="793.9305" y="-138.8" font-family="Times,serif" font-size="14.00" fill="#000000">Optional steps</text>
</g>
<!-- reads -->
<g id="node1" class="node">
<title>reads</title>
<polygon fill="none" stroke="#000000" points="730.4482,-486 516.8529,-486 461.906,-450 675.5013,-450 730.4482,-486"/>
<text text-anchor="middle" x="596.1771" y="-463.8" font-family="Times,serif" font-size="14.00" fill="#000000">Linked reads (FASTQ)</text>
</g>
<!-- map -->
<g id="node3" class="node">
<title>map</title>
<polygon fill="none" stroke="#000000" points="572.1771,-414 32.1771,-414 32.1771,-378 572.1771,-378 572.1771,-414"/>
<text text-anchor="middle" x="302.1771" y="-391.8" font-family="Times,serif" font-size="14.00" fill="#000000">Align reads to the draft assembly with BWA&#45;MEM (BAM)</text>
</g>
<!-- reads&#45;&gt;map -->
<g id="edge1" class="edge">
<title>reads&#45;&gt;map</title>
<path fill="none" stroke="#000000" d="M522.368,-449.9243C480.787,-439.7412 428.7164,-426.9892 385.6519,-416.4428"/>
<polygon fill="#000000" stroke="#000000" points="386.3071,-412.9999 375.7616,-414.0207 384.642,-419.799 386.3071,-412.9999"/>
</g>
<!-- scaffold -->
<g id="node9" class="node">
<title>scaffold</title>
<ellipse fill="none" stroke="#000000" cx="600.1771" cy="-106" rx="233.5689" ry="18"/>
<text text-anchor="middle" x="600.1771" y="-101.8" font-family="Times,serif" font-size="14.00" fill="#000000">Scaffold the assembly with ARCS + ABySS&#45;Scaffold (FASTA)</text>
</g>
<!-- reads&#45;&gt;scaffold -->
<g id="edge9" class="edge">
<title>reads&#45;&gt;scaffold</title>
<path fill="none" stroke="#000000" d="M597.0059,-449.8191C598.1775,-422.5085 600.1771,-369.2675 600.1771,-324 600.1771,-324 600.1771,-324 600.1771,-252 600.1771,-211.3187 600.1771,-164.2612 600.1771,-134.8124"/>
<polygon fill="#000000" stroke="#000000" points="603.6772,-134.4379 600.1771,-124.438 596.6772,-134.438 603.6772,-134.4379"/>
</g>
<!-- draft -->
<g id="node2" class="node">
<title>draft</title>
<polygon fill="none" stroke="#000000" points="439.5198,-486 221.0383,-486 164.8344,-450 383.3159,-450 439.5198,-486"/>
<text text-anchor="middle" x="302.1771" y="-463.8" font-family="Times,serif" font-size="14.00" fill="#000000">Draft genome (FASTA)</text>
</g>
<!-- draft&#45;&gt;map -->
<g id="edge2" class="edge">
<title>draft&#45;&gt;map</title>
<path fill="none" stroke="#000000" d="M302.1771,-449.8314C302.1771,-442.131 302.1771,-432.9743 302.1771,-424.4166"/>
<polygon fill="#000000" stroke="#000000" points="305.6772,-424.4132 302.1771,-414.4133 298.6772,-424.4133 305.6772,-424.4132"/>
</g>
<!-- molecules -->
<g id="node4" class="node">
<title>molecules</title>
<polygon fill="none" stroke="#000000" points="572.1771,-342 32.1771,-342 32.1771,-306 572.1771,-306 572.1771,-342"/>
<text text-anchor="middle" x="302.1771" y="-319.8" font-family="Times,serif" font-size="14.00" fill="#000000">Infer molecules extents from the linked reads (TSV)</text>
</g>
<!-- map&#45;&gt;molecules -->
<g id="edge3" class="edge">
<title>map&#45;&gt;molecules</title>
<path fill="none" stroke="#000000" d="M302.1771,-377.8314C302.1771,-370.131 302.1771,-360.9743 302.1771,-352.4166"/>
<polygon fill="#000000" stroke="#000000" points="305.6772,-352.4132 302.1771,-342.4133 298.6772,-352.4133 305.6772,-352.4132"/>
</g>
<!-- breakpoints -->
<g id="node5" class="node">
<title>breakpoints</title>
<polygon fill="none" stroke="#000000" points="572.1771,-270 32.1771,-270 32.1771,-234 572.1771,-234 572.1771,-270"/>
<text text-anchor="middle" x="302.1771" y="-247.8" font-family="Times,serif" font-size="14.00" fill="#000000">Identify regions poorly supported by molecules (BED)</text>
</g>
<!-- molecules&#45;&gt;breakpoints -->
<g id="edge4" class="edge">
<title>molecules&#45;&gt;breakpoints</title>
<path fill="none" stroke="#000000" d="M302.1771,-305.8314C302.1771,-298.131 302.1771,-288.9743 302.1771,-280.4166"/>
<polygon fill="#000000" stroke="#000000" points="305.6772,-280.4132 302.1771,-270.4133 298.6772,-280.4133 305.6772,-280.4132"/>
</g>
<!-- tigs -->
<g id="node6" class="node">
<title>tigs</title>
<ellipse fill="none" stroke="#000000" cx="302.1771" cy="-180" rx="114.7021" ry="18"/>
<text text-anchor="middle" x="302.1771" y="-175.8" font-family="Times,serif" font-size="14.00" fill="#000000">Corrected assembly (FASTA)</text>
</g>
<!-- breakpoints&#45;&gt;tigs -->
<g id="edge5" class="edge">
<title>breakpoints&#45;&gt;tigs</title>
<path fill="none" stroke="#000000" d="M302.1771,-233.8314C302.1771,-226.131 302.1771,-216.9743 302.1771,-208.4166"/>
<polygon fill="#000000" stroke="#000000" points="305.6772,-208.4132 302.1771,-198.4133 298.6772,-208.4133 305.6772,-208.4132"/>
</g>
<!-- tigs_metrics -->
<g id="node8" class="node">
<title>tigs_metrics</title>
<ellipse fill="none" stroke="#000000" cx="203.1771" cy="-34" rx="180.3418" ry="18"/>
<text text-anchor="middle" x="203.1771" y="-29.8" font-family="Times,serif" font-size="14.00" fill="#000000">Compute assembly metrics with QUAST (TSV)</text>
</g>
<!-- tigs&#45;&gt;tigs_metrics -->
<g id="edge7" class="edge">
<title>tigs&#45;&gt;tigs_metrics</title>
<path fill="none" stroke="#000000" d="M188.8601,-176.9513C113.4958,-173.7172 26.1994,-167.1565 14.1771,-154 -5.6103,-132.3458 -3.4873,-111.4182 14.1771,-88 25.615,-72.8364 62.8413,-60.6499 101.2663,-51.7184"/>
<polygon fill="#000000" stroke="#000000" points="102.0584,-55.1277 111.0463,-49.518 100.5218,-48.2985 102.0584,-55.1277"/>
</g>
<!-- tigs&#45;&gt;scaffold -->
<g id="edge8" class="edge">
<title>tigs&#45;&gt;scaffold</title>
<path fill="none" stroke="#000000" d="M363.5616,-164.7569C409.0704,-153.456 471.4916,-137.9555 520.7945,-125.7125"/>
<polygon fill="#000000" stroke="#000000" points="521.9261,-129.0378 530.7878,-123.2309 520.239,-122.2442 521.9261,-129.0378"/>
</g>
<!-- reference -->
<g id="node7" class="node">
<title>reference</title>
<polygon fill="none" stroke="#000000" points="348.8905,-124 90.0499,-124 23.4637,-88 282.3043,-88 348.8905,-124"/>
<text text-anchor="middle" x="186.1771" y="-101.8" font-family="Times,serif" font-size="14.00" fill="#000000">Reference genome (FASTA)</text>
</g>
<!-- reference&#45;&gt;tigs_metrics -->
<g id="edge6" class="edge">
<title>reference&#45;&gt;tigs_metrics</title>
<path fill="none" stroke="#000000" d="M190.4669,-87.8314C192.2851,-80.131 194.447,-70.9743 196.4676,-62.4166"/>
<polygon fill="#000000" stroke="#000000" points="199.9379,-62.95 198.8295,-52.4133 193.1252,-61.3414 199.9379,-62.95"/>
</g>
<!-- scaffold_metrics -->
<g id="node10" class="node">
<title>scaffold_metrics</title>
<ellipse fill="none" stroke="#000000" cx="590.1771" cy="-34" rx="180.3418" ry="18"/>
<text text-anchor="middle" x="590.1771" y="-29.8" font-family="Times,serif" font-size="14.00" fill="#000000">Compute assembly metrics with QUAST (TSV)</text>
</g>
<!-- reference&#45;&gt;scaffold_metrics -->
<g id="edge10" class="edge">
<title>reference&#45;&gt;scaffold_metrics</title>
<path fill="none" stroke="#000000" d="M283.7167,-88.6167C346.7752,-77.3786 428.571,-62.8011 491.7954,-51.5334"/>
<polygon fill="#000000" stroke="#000000" points="492.5465,-54.9547 501.7773,-49.7544 491.3183,-48.0633 492.5465,-54.9547"/>
</g>
<!-- scaffold&#45;&gt;scaffold_metrics -->
<g id="edge11" class="edge">
<title>scaffold&#45;&gt;scaffold_metrics</title>
<path fill="none" stroke="#000000" d="M597.6537,-87.8314C596.5842,-80.131 595.3124,-70.9743 594.1239,-62.4166"/>
<polygon fill="#000000" stroke="#000000" points="597.577,-61.8367 592.7345,-52.4133 590.6435,-62.7997 597.577,-61.8367"/>
</g>
</g>
</svg>
