<?xml version="1.0" encoding="UTF-8" standalone="no"?>
<!DOCTYPE svg PUBLIC "-//W3C//DTD SVG 1.1//EN"
 "http://www.w3.org/Graphics/SVG/1.1/DTD/svg11.dtd">
<!-- Generated by graphviz version 2.40.1 (20161225.0304)
 -->
<!-- Title: G Pages: 1 -->
<svg width="1403pt" height="1772pt"
 viewBox="0.00 0.00 1403.41 1772.00" xmlns="http://www.w3.org/2000/svg" xmlns:xlink="http://www.w3.org/1999/xlink">
<g id="graph0" class="graph" transform="scale(1 1) rotate(0) translate(4 1768)">
<title>G</title>
<polygon fill="#ffffff" stroke="transparent" points="-4,4 -4,-1768 1399.4116,-1768 1399.4116,4 -4,4"/>
<!-- n2 -->
<g id="node1" class="node">
<title>n2</title>
<ellipse fill="#d3d3d3" stroke="#000000" cx="1057.8252" cy="-18" rx="27" ry="18"/>
<text text-anchor="middle" x="1057.8252" y="-13.8" font-family="Times,serif" font-size="14.00" fill="#000000">all</text>
</g>
<!-- n30 -->
<g id="node2" class="node">
<title>n30</title>
<ellipse fill="#d3d3d3" stroke="#000000" cx="1030.8252" cy="-90" rx="27" ry="18"/>
<text text-anchor="middle" x="1030.8252" y="-85.8" font-family="Times,serif" font-size="14.00" fill="#000000">arcs</text>
</g>
<!-- n30&#45;&gt;n2 -->
<g id="edge1" class="edge">
<title>n30&#45;&gt;n2</title>
<path fill="none" stroke="#000000" d="M1037.4994,-72.2022C1040.5728,-64.0064 1044.2868,-54.1024 1047.6947,-45.0145"/>
<polygon fill="#000000" stroke="#000000" points="1050.9937,-46.1853 1051.2278,-35.593 1044.4394,-43.7274 1050.9937,-46.1853"/>
</g>
<!-- n5 -->
<g id="node3" class="node">
<title>n5</title>
<polygon fill="#d3d3d3" stroke="#000000" points="840.5438,-1764 756.6803,-1764 735.1066,-1728 818.9701,-1728 840.5438,-1764"/>
<text text-anchor="middle" x="787.8252" y="-1741.8" font-family="Times,serif" font-size="14.00" fill="#000000">draft.fa</text>
</g>
<!-- n9 -->
<g id="node4" class="node">
<title>n9</title>
<polygon fill="none" stroke="#000000" points="900.6295,-1692 819.0209,-1692 819.0209,-1656 900.6295,-1656 900.6295,-1692"/>
<text text-anchor="middle" x="859.8252" y="-1669.8" font-family="Times,serif" font-size="14.00" fill="#000000">draft.fa.bwt</text>
</g>
<!-- n5&#45;&gt;n9 -->
<g id="edge2" class="edge">
<title>n5&#45;&gt;n9</title>
<path fill="none" stroke="#000000" d="M805.9938,-1727.8314C814.5404,-1719.2848 824.8809,-1708.9443 834.2054,-1699.6198"/>
<polygon fill="#000000" stroke="#000000" points="836.8157,-1701.9592 841.4119,-1692.4133 831.8659,-1697.0095 836.8157,-1701.9592"/>
</g>
<!-- n21 -->
<g id="node5" class="node">
<title>n21</title>
<polygon fill="none" stroke="#000000" points="393.3946,-1116 318.2558,-1116 318.2558,-1080 393.3946,-1080 393.3946,-1116"/>
<text text-anchor="middle" x="355.8252" y="-1093.8" font-family="Times,serif" font-size="14.00" fill="#000000">draft.fa.fai</text>
</g>
<!-- n5&#45;&gt;n21 -->
<g id="edge3" class="edge">
<title>n5&#45;&gt;n21</title>
<path fill="none" stroke="#000000" d="M742.1872,-1740.1902C633.5916,-1725.0947 368.8252,-1680.2652 368.8252,-1602 368.8252,-1602 368.8252,-1602 368.8252,-1242 368.8252,-1201.7128 363.7155,-1155.3414 359.9031,-1126.3495"/>
<polygon fill="#000000" stroke="#000000" points="363.3305,-1125.5772 358.5188,-1116.138 356.3939,-1126.5175 363.3305,-1125.5772"/>
</g>
<!-- n7 -->
<g id="node6" class="node">
<title>n7</title>
<polygon fill="none" stroke="#000000" points="1096.8953,-1620 976.7551,-1620 976.7551,-1584 1096.8953,-1584 1096.8953,-1620"/>
<text text-anchor="middle" x="1036.8252" y="-1597.8" font-family="Times,serif" font-size="14.00" fill="#000000">draft.reads.bx.bam</text>
</g>
<!-- n9&#45;&gt;n7 -->
<g id="edge4" class="edge">
<title>n9&#45;&gt;n7</title>
<path fill="none" stroke="#000000" d="M900.8774,-1657.3008C925.2532,-1647.3852 956.4472,-1634.6961 982.8047,-1623.9745"/>
<polygon fill="#000000" stroke="#000000" points="984.3308,-1627.1322 992.2749,-1620.1222 981.6931,-1620.6482 984.3308,-1627.1322"/>
</g>
<!-- n27 -->
<g id="node7" class="node">
<title>n27</title>
<polygon fill="none" stroke="#000000" points="864.4571,-1044 457.1933,-1044 457.1933,-1008 864.4571,-1008 864.4571,-1044"/>
<text text-anchor="middle" x="660.8252" y="-1021.8" font-family="Times,serif" font-size="14.00" fill="#000000">draft.reads.bx.as100.nm5.bam.mi.bx.molecule.size2000.bed.depth.tsv</text>
</g>
<!-- n21&#45;&gt;n27 -->
<g id="edge5" class="edge">
<title>n21&#45;&gt;n27</title>
<path fill="none" stroke="#000000" d="M393.6122,-1082.9341C396.709,-1081.8814 399.8074,-1080.8875 402.8252,-1080 449.0493,-1066.4055 500.8921,-1054.8591 545.9131,-1045.9757"/>
<polygon fill="#000000" stroke="#000000" points="546.861,-1049.3568 556.0055,-1044.0061 545.5202,-1042.4864 546.861,-1049.3568"/>
</g>
<!-- n18 -->
<g id="node8" class="node">
<title>n18</title>
<polygon fill="none" stroke="#000000" points="439.4757,-1044 .1747,-1044 .1747,-1008 439.4757,-1008 439.4757,-1044"/>
<text text-anchor="middle" x="219.8252" y="-1021.8" font-family="Times,serif" font-size="14.00" fill="#000000">draft.reads.bx.as100.nm5.bam.mi.bx.molecule.size2000.bed.genomecov.tsv</text>
</g>
<!-- n21&#45;&gt;n18 -->
<g id="edge6" class="edge">
<title>n21&#45;&gt;n18</title>
<path fill="none" stroke="#000000" d="M321.5067,-1079.8314C303.7893,-1070.4516 281.9907,-1058.9112 263.1268,-1048.9244"/>
<polygon fill="#000000" stroke="#000000" points="264.6083,-1045.7485 254.1328,-1044.1628 261.333,-1051.935 264.6083,-1045.7485"/>
</g>
<!-- n12 -->
<g id="node9" class="node">
<title>n12</title>
<polygon fill="none" stroke="#000000" points="1115.0569,-1548 958.5935,-1548 958.5935,-1512 1115.0569,-1512 1115.0569,-1548"/>
<text text-anchor="middle" x="1036.8252" y="-1525.8" font-family="Times,serif" font-size="14.00" fill="#000000">draft.reads.bx.as100.bam</text>
</g>
<!-- n7&#45;&gt;n12 -->
<g id="edge36" class="edge">
<title>n7&#45;&gt;n12</title>
<path fill="none" stroke="#000000" d="M1036.8252,-1583.8314C1036.8252,-1576.131 1036.8252,-1566.9743 1036.8252,-1558.4166"/>
<polygon fill="#000000" stroke="#000000" points="1040.3253,-1558.4132 1036.8252,-1548.4133 1033.3253,-1558.4133 1040.3253,-1558.4132"/>
</g>
<!-- n6 -->
<g id="node34" class="node">
<title>n6</title>
<polygon fill="none" stroke="#000000" points="1395.4982,-1476 1254.1522,-1476 1254.1522,-1440 1395.4982,-1440 1395.4982,-1476"/>
<text text-anchor="middle" x="1324.8252" y="-1453.8" font-family="Times,serif" font-size="14.00" fill="#000000">draft.reads.bx.bam.bai</text>
</g>
<!-- n7&#45;&gt;n6 -->
<g id="edge37" class="edge">
<title>n7&#45;&gt;n6</title>
<path fill="none" stroke="#000000" d="M1073.009,-1583.9081C1125.3869,-1557.7192 1222.2945,-1509.2654 1279.4088,-1480.7082"/>
<polygon fill="#000000" stroke="#000000" points="1281.1839,-1483.7338 1288.5629,-1476.1311 1278.0534,-1477.4728 1281.1839,-1483.7338"/>
</g>
<!-- n26 -->
<g id="node17" class="node">
<title>n26</title>
<polygon fill="none" stroke="#000000" points="869.9571,-972 441.6933,-972 441.6933,-936 869.9571,-936 869.9571,-972"/>
<text text-anchor="middle" x="655.8252" y="-949.8" font-family="Times,serif" font-size="14.00" fill="#000000">draft.reads.bx.as100.nm5.bam.mi.bx.molecule.size2000.bed.depth100.tsv</text>
</g>
<!-- n27&#45;&gt;n26 -->
<g id="edge15" class="edge">
<title>n27&#45;&gt;n26</title>
<path fill="none" stroke="#000000" d="M659.5635,-1007.8314C659.0287,-1000.131 658.3929,-990.9743 657.7986,-982.4166"/>
<polygon fill="#000000" stroke="#000000" points="661.2884,-982.1467 657.1039,-972.4133 654.3052,-982.6317 661.2884,-982.1467"/>
</g>
<!-- n17 -->
<g id="node19" class="node">
<title>n17</title>
<polygon fill="none" stroke="#000000" points="571.8652,-900 103.7852,-900 103.7852,-864 571.8652,-864 571.8652,-900"/>
<text text-anchor="middle" x="337.8252" y="-877.8" font-family="Times,serif" font-size="14.00" fill="#000000">draft.reads.bx.as100.nm5.bam.mi.bx.molecule.size2000.bed.genomecov.stats.tsv</text>
</g>
<!-- n18&#45;&gt;n17 -->
<g id="edge18" class="edge">
<title>n18&#45;&gt;n17</title>
<path fill="none" stroke="#000000" d="M234.77,-1007.7623C255.4285,-982.5518 292.8292,-936.9103 316.4417,-908.0952"/>
<polygon fill="#000000" stroke="#000000" points="319.3707,-910.0428 323.0018,-900.0896 313.9563,-905.606 319.3707,-910.0428"/>
</g>
<!-- n11 -->
<g id="node10" class="node">
<title>n11</title>
<polygon fill="none" stroke="#000000" points="1129.4463,-1476 944.2041,-1476 944.2041,-1440 1129.4463,-1440 1129.4463,-1476"/>
<text text-anchor="middle" x="1036.8252" y="-1453.8" font-family="Times,serif" font-size="14.00" fill="#000000">draft.reads.bx.as100.nm5.bam</text>
</g>
<!-- n12&#45;&gt;n11 -->
<g id="edge7" class="edge">
<title>n12&#45;&gt;n11</title>
<path fill="none" stroke="#000000" d="M1036.8252,-1511.8314C1036.8252,-1504.131 1036.8252,-1494.9743 1036.8252,-1486.4166"/>
<polygon fill="#000000" stroke="#000000" points="1040.3253,-1486.4132 1036.8252,-1476.4133 1033.3253,-1486.4133 1040.3253,-1486.4132"/>
</g>
<!-- n10 -->
<g id="node11" class="node">
<title>n10</title>
<polygon fill="none" stroke="#000000" points="1315.55,-1332 1110.1004,-1332 1110.1004,-1296 1315.55,-1296 1315.55,-1332"/>
<text text-anchor="middle" x="1212.8252" y="-1309.8" font-family="Times,serif" font-size="14.00" fill="#000000">draft.reads.bx.as100.nm5.bam.bai</text>
</g>
<!-- n11&#45;&gt;n10 -->
<g id="edge8" class="edge">
<title>n11&#45;&gt;n10</title>
<path fill="none" stroke="#000000" d="M1059.1157,-1439.7623C1090.4575,-1414.119 1147.6353,-1367.3372 1182.7265,-1338.6262"/>
<polygon fill="#000000" stroke="#000000" points="1185.1924,-1341.1309 1190.7157,-1332.0896 1180.7597,-1335.7132 1185.1924,-1341.1309"/>
</g>
<!-- n16 -->
<g id="node12" class="node">
<title>n16</title>
<polygon fill="none" stroke="#000000" points="1094.2847,-1404 871.3657,-1404 871.3657,-1368 1094.2847,-1368 1094.2847,-1404"/>
<text text-anchor="middle" x="982.8252" y="-1381.8" font-family="Times,serif" font-size="14.00" fill="#000000">draft.reads.bx.as100.nm5.bam.bx.tsv</text>
</g>
<!-- n11&#45;&gt;n16 -->
<g id="edge9" class="edge">
<title>n11&#45;&gt;n16</title>
<path fill="none" stroke="#000000" d="M1023.1987,-1439.8314C1016.9792,-1431.5386 1009.493,-1421.557 1002.6652,-1412.4533"/>
<polygon fill="#000000" stroke="#000000" points="1005.4352,-1410.3133 996.6351,-1404.4133 999.8352,-1414.5133 1005.4352,-1410.3133"/>
</g>
<!-- n3 -->
<g id="node13" class="node">
<title>n3</title>
<ellipse fill="#d3d3d3" stroke="#000000" cx="1201.8252" cy="-522" rx="35.8147" ry="18"/>
<text text-anchor="middle" x="1201.8252" y="-517.8" font-family="Times,serif" font-size="14.00" fill="#000000">tigmint</text>
</g>
<!-- n10&#45;&gt;n3 -->
<g id="edge10" class="edge">
<title>n10&#45;&gt;n3</title>
<path fill="none" stroke="#000000" d="M1236.7608,-1295.9237C1266.6279,-1271.1078 1313.8252,-1223.4385 1313.8252,-1170 1313.8252,-1170 1313.8252,-1170 1313.8252,-666 1313.8252,-612.7955 1265.5975,-567.4101 1232.4366,-542.492"/>
<polygon fill="#000000" stroke="#000000" points="1234.0963,-539.3707 1223.9528,-536.3111 1229.9743,-545.0285 1234.0963,-539.3707"/>
</g>
<!-- n15 -->
<g id="node14" class="node">
<title>n15</title>
<polygon fill="none" stroke="#000000" points="1076.0636,-1332 835.5868,-1332 835.5868,-1296 1076.0636,-1296 1076.0636,-1332"/>
<text text-anchor="middle" x="955.8252" y="-1309.8" font-family="Times,serif" font-size="14.00" fill="#000000">draft.reads.bx.as100.nm5.bam.mi.bx.tsv</text>
</g>
<!-- n16&#45;&gt;n15 -->
<g id="edge11" class="edge">
<title>n16&#45;&gt;n15</title>
<path fill="none" stroke="#000000" d="M976.012,-1367.8314C973.0608,-1359.9617 969.5394,-1350.5712 966.2702,-1341.8533"/>
<polygon fill="#000000" stroke="#000000" points="969.5186,-1340.5476 962.7302,-1332.4133 962.9643,-1343.0055 969.5186,-1340.5476"/>
</g>
<!-- n3&#45;&gt;n2 -->
<g id="edge43" class="edge">
<title>n3&#45;&gt;n2</title>
<path fill="none" stroke="#000000" d="M1201.618,-503.8149C1201.3251,-476.4989 1200.8252,-423.2511 1200.8252,-378 1200.8252,-378 1200.8252,-378 1200.8252,-162 1200.8252,-99.2732 1131.6632,-54.1474 1089.5366,-32.4793"/>
<polygon fill="#000000" stroke="#000000" points="1090.9953,-29.2957 1080.484,-27.968 1087.8731,-35.5609 1090.9953,-29.2957"/>
</g>
<!-- n14 -->
<g id="node33" class="node">
<title>n14</title>
<polygon fill="none" stroke="#000000" points="1099.3744,-1260 804.276,-1260 804.276,-1224 1099.3744,-1224 1099.3744,-1260"/>
<text text-anchor="middle" x="951.8252" y="-1237.8" font-family="Times,serif" font-size="14.00" fill="#000000">draft.reads.bx.as100.nm5.bam.mi.bx.molecule.tsv</text>
</g>
<!-- n15&#45;&gt;n14 -->
<g id="edge35" class="edge">
<title>n15&#45;&gt;n14</title>
<path fill="none" stroke="#000000" d="M954.8158,-1295.8314C954.388,-1288.131 953.8793,-1278.9743 953.4039,-1270.4166"/>
<polygon fill="#000000" stroke="#000000" points="956.8976,-1270.2037 952.8482,-1260.4133 949.9083,-1270.592 956.8976,-1270.2037"/>
</g>
<!-- n20 -->
<g id="node15" class="node">
<title>n20</title>
<polygon fill="none" stroke="#000000" points="846.7503,-1188 546.9001,-1188 546.9001,-1152 846.7503,-1152 846.7503,-1188"/>
<text text-anchor="middle" x="696.8252" y="-1165.8" font-family="Times,serif" font-size="14.00" fill="#000000">draft.reads.bx.as100.nm5.bam.mi.bx.molecule.bed</text>
</g>
<!-- n19 -->
<g id="node16" class="node">
<title>n19</title>
<polygon fill="none" stroke="#000000" points="764.0158,-1116 411.6346,-1116 411.6346,-1080 764.0158,-1080 764.0158,-1116"/>
<text text-anchor="middle" x="587.8252" y="-1093.8" font-family="Times,serif" font-size="14.00" fill="#000000">draft.reads.bx.as100.nm5.bam.mi.bx.molecule.size2000.bed</text>
</g>
<!-- n20&#45;&gt;n19 -->
<g id="edge12" class="edge">
<title>n20&#45;&gt;n19</title>
<path fill="none" stroke="#000000" d="M669.3199,-1151.8314C655.5072,-1142.7074 638.5996,-1131.539 623.7723,-1121.7449"/>
<polygon fill="#000000" stroke="#000000" points="625.5948,-1118.7541 615.3217,-1116.1628 621.7366,-1124.5949 625.5948,-1118.7541"/>
</g>
<!-- n19&#45;&gt;n27 -->
<g id="edge13" class="edge">
<title>n19&#45;&gt;n27</title>
<path fill="none" stroke="#000000" d="M606.2462,-1079.8314C614.9781,-1071.219 625.5569,-1060.7851 635.0675,-1051.4048"/>
<polygon fill="#000000" stroke="#000000" points="637.7482,-1053.6769 642.4101,-1044.1628 632.8327,-1048.6931 637.7482,-1053.6769"/>
</g>
<!-- n19&#45;&gt;n18 -->
<g id="edge14" class="edge">
<title>n19&#45;&gt;n18</title>
<path fill="none" stroke="#000000" d="M495.4383,-1079.9243C442.6243,-1069.5911 376.2907,-1056.6128 321.935,-1045.978"/>
<polygon fill="#000000" stroke="#000000" points="322.4169,-1042.506 311.9309,-1044.0207 321.0728,-1049.3758 322.4169,-1042.506"/>
</g>
<!-- n25 -->
<g id="node18" class="node">
<title>n25</title>
<polygon fill="none" stroke="#000000" points="1086.7952,-900 648.8552,-900 648.8552,-864 1086.7952,-864 1086.7952,-900"/>
<text text-anchor="middle" x="867.8252" y="-877.8" font-family="Times,serif" font-size="14.00" fill="#000000">draft.reads.bx.as100.nm5.bam.mi.bx.molecule.size2000.depth100.starts.tsv</text>
</g>
<!-- n26&#45;&gt;n25 -->
<g id="edge16" class="edge">
<title>n26&#45;&gt;n25</title>
<path fill="none" stroke="#000000" d="M709.0481,-935.9243C738.1557,-926.0387 774.3918,-913.7321 804.8946,-903.3726"/>
<polygon fill="#000000" stroke="#000000" points="806.2371,-906.6131 814.5804,-900.0831 803.986,-899.9849 806.2371,-906.6131"/>
</g>
<!-- n24 -->
<g id="node30" class="node">
<title>n24</title>
<polygon fill="none" stroke="#000000" points="1121.1124,-828 614.538,-828 614.538,-792 1121.1124,-792 1121.1124,-828"/>
<text text-anchor="middle" x="867.8252" y="-805.8" font-family="Times,serif" font-size="14.00" fill="#000000">draft.reads.bx.as100.nm5.bam.mi.bx.molecule.size2000.depth100.starts.breakpoints.tsv</text>
</g>
<!-- n25&#45;&gt;n24 -->
<g id="edge29" class="edge">
<title>n25&#45;&gt;n24</title>
<path fill="none" stroke="#000000" d="M867.8252,-863.8314C867.8252,-856.131 867.8252,-846.9743 867.8252,-838.4166"/>
<polygon fill="#000000" stroke="#000000" points="871.3253,-838.4132 867.8252,-828.4133 864.3253,-838.4133 871.3253,-838.4132"/>
</g>
<!-- n17&#45;&gt;n3 -->
<g id="edge17" class="edge">
<title>n17&#45;&gt;n3</title>
<path fill="none" stroke="#000000" d="M341.9692,-863.9265C347.8273,-836.7528 357.8252,-783.6844 357.8252,-738 357.8252,-738 357.8252,-738 357.8252,-666 357.8252,-619.1222 372.6356,-600.1314 412.8252,-576 470.7487,-541.2204 952.4725,-545.3258 1019.8252,-540 1066.4954,-536.3096 1119.7799,-530.8991 1156.5778,-526.9742"/>
<polygon fill="#000000" stroke="#000000" points="1157.4016,-530.4059 1166.9709,-525.8584 1156.6543,-523.4459 1157.4016,-530.4059"/>
</g>
<!-- n23 -->
<g id="node20" class="node">
<title>n23</title>
<polygon fill="none" stroke="#000000" points="1134.7158,-756 600.9346,-756 600.9346,-720 1134.7158,-720 1134.7158,-756"/>
<text text-anchor="middle" x="867.8252" y="-733.8" font-family="Times,serif" font-size="14.00" fill="#000000">draft.reads.bx.as100.nm5.bam.mi.bx.molecule.size2000.depth100.starts.breakpoints.tigs.bed</text>
</g>
<!-- n22 -->
<g id="node21" class="node">
<title>n22</title>
<polygon fill="none" stroke="#000000" points="1129.8781,-684 605.7723,-684 605.7723,-648 1129.8781,-648 1129.8781,-684"/>
<text text-anchor="middle" x="867.8252" y="-661.8" font-family="Times,serif" font-size="14.00" fill="#000000">draft.reads.bx.as100.nm5.bam.mi.bx.molecule.size2000.depth100.starts.breakpoints.tigs.fa</text>
</g>
<!-- n23&#45;&gt;n22 -->
<g id="edge19" class="edge">
<title>n23&#45;&gt;n22</title>
<path fill="none" stroke="#000000" d="M867.8252,-719.8314C867.8252,-712.131 867.8252,-702.9743 867.8252,-694.4166"/>
<polygon fill="#000000" stroke="#000000" points="871.3253,-694.4132 867.8252,-684.4133 864.3253,-694.4133 871.3253,-694.4132"/>
</g>
<!-- n36 -->
<g id="node22" class="node">
<title>n36</title>
<polygon fill="none" stroke="#000000" points="971.3779,-612 422.2725,-612 422.2725,-576 971.3779,-576 971.3779,-612"/>
<text text-anchor="middle" x="696.8252" y="-589.8" font-family="Times,serif" font-size="14.00" fill="#000000">draft.reads.bx.as100.nm5.bam.mi.bx.molecule.size2000.depth100.starts.breakpoints.tigs.fa.bwt</text>
</g>
<!-- n22&#45;&gt;n36 -->
<g id="edge20" class="edge">
<title>n22&#45;&gt;n36</title>
<path fill="none" stroke="#000000" d="M824.6747,-647.8314C801.7028,-638.159 773.2743,-626.1891 749.062,-615.9944"/>
<polygon fill="#000000" stroke="#000000" points="750.24,-612.6929 739.6654,-612.038 747.5236,-619.1443 750.24,-612.6929"/>
</g>
<!-- n29 -->
<g id="node23" class="node">
<title>n29</title>
<polygon fill="#d3d3d3" stroke="#000000" points="1175.9499,-612 1027.8093,-612 989.7005,-576 1137.8411,-576 1175.9499,-612"/>
<text text-anchor="middle" x="1082.8252" y="-589.8" font-family="Times,serif" font-size="14.00" fill="#000000">draft.tigmint.fa</text>
</g>
<!-- n22&#45;&gt;n29 -->
<g id="edge21" class="edge">
<title>n22&#45;&gt;n29</title>
<path fill="none" stroke="#000000" d="M921.8013,-647.9243C951.3208,-638.0387 988.0696,-625.7321 1019.0041,-615.3726"/>
<polygon fill="#000000" stroke="#000000" points="1020.456,-618.5776 1028.8269,-612.0831 1018.2331,-611.9399 1020.456,-618.5776"/>
</g>
<!-- n35 -->
<g id="node24" class="node">
<title>n35</title>
<polygon fill="none" stroke="#000000" points="1010.6436,-540 391.0068,-540 391.0068,-504 1010.6436,-504 1010.6436,-540"/>
<text text-anchor="middle" x="700.8252" y="-517.8" font-family="Times,serif" font-size="14.00" fill="#000000">draft.reads.bx.as100.nm5.bam.mi.bx.molecule.size2000.depth100.starts.breakpoints.tigs.reads.bx.sortn.bam</text>
</g>
<!-- n36&#45;&gt;n35 -->
<g id="edge22" class="edge">
<title>n36&#45;&gt;n35</title>
<path fill="none" stroke="#000000" d="M697.8346,-575.8314C698.2624,-568.131 698.7711,-558.9743 699.2465,-550.4166"/>
<polygon fill="#000000" stroke="#000000" points="702.7421,-550.592 699.8022,-540.4133 695.7528,-550.2037 702.7421,-550.592"/>
</g>
<!-- n29&#45;&gt;n3 -->
<g id="edge40" class="edge">
<title>n29&#45;&gt;n3</title>
<path fill="none" stroke="#000000" d="M1112.8539,-575.8314C1130.3265,-565.2597 1152.3352,-551.9435 1170.0913,-541.2003"/>
<polygon fill="#000000" stroke="#000000" points="1172.1984,-544.0163 1178.9424,-535.845 1168.5747,-538.0272 1172.1984,-544.0163"/>
</g>
<!-- n34 -->
<g id="node25" class="node">
<title>n34</title>
<polygon fill="none" stroke="#000000" points="1078.213,-468 339.4374,-468 339.4374,-432 1078.213,-432 1078.213,-468"/>
<text text-anchor="middle" x="708.8252" y="-445.8" font-family="Times,serif" font-size="14.00" fill="#000000">draft.reads.bx.as100.nm5.bam.mi.bx.molecule.size2000.depth100.starts.breakpoints.tigs.reads.c5_e30000_r0.05.arcs_original.gv</text>
</g>
<!-- n35&#45;&gt;n34 -->
<g id="edge23" class="edge">
<title>n35&#45;&gt;n34</title>
<path fill="none" stroke="#000000" d="M702.8439,-503.8314C703.6995,-496.131 704.7169,-486.9743 705.6678,-478.4166"/>
<polygon fill="#000000" stroke="#000000" points="709.1535,-478.7386 706.7793,-468.4133 702.1963,-477.9656 709.1535,-478.7386"/>
</g>
<!-- n33 -->
<g id="node29" class="node">
<title>n33</title>
<polygon fill="none" stroke="#000000" points="1086.2334,-396 365.417,-396 365.417,-360 1086.2334,-360 1086.2334,-396"/>
<text text-anchor="middle" x="725.8252" y="-373.8" font-family="Times,serif" font-size="14.00" fill="#000000">draft.reads.bx.as100.nm5.bam.mi.bx.molecule.size2000.depth100.starts.breakpoints.tigs.reads.c5_e30000_r0.05.arcs.links.tsv</text>
</g>
<!-- n34&#45;&gt;n33 -->
<g id="edge27" class="edge">
<title>n34&#45;&gt;n33</title>
<path fill="none" stroke="#000000" d="M713.115,-431.8314C714.9332,-424.131 717.0951,-414.9743 719.1157,-406.4166"/>
<polygon fill="#000000" stroke="#000000" points="722.586,-406.95 721.4776,-396.4133 715.7733,-405.3414 722.586,-406.95"/>
</g>
<!-- n31 -->
<g id="node26" class="node">
<title>n31</title>
<polygon fill="none" stroke="#000000" points="1158.3751,-252 391.2753,-252 391.2753,-216 1158.3751,-216 1158.3751,-252"/>
<text text-anchor="middle" x="774.8252" y="-229.8" font-family="Times,serif" font-size="14.00" fill="#000000">draft.reads.bx.as100.nm5.bam.mi.bx.molecule.size2000.depth100.starts.breakpoints.tigs.reads.c5_e30000_r0.05.arcs.a0.1_l10.links.fa</text>
</g>
<!-- n37 -->
<g id="node27" class="node">
<title>n37</title>
<polygon fill="#d3d3d3" stroke="#000000" points="1033.1803,-180 846.4946,-180 798.4701,-144 985.1558,-144 1033.1803,-180"/>
<text text-anchor="middle" x="915.8252" y="-157.8" font-family="Times,serif" font-size="14.00" fill="#000000">draft.tigmint.arcs.fa</text>
</g>
<!-- n31&#45;&gt;n37 -->
<g id="edge24" class="edge">
<title>n31&#45;&gt;n37</title>
<path fill="none" stroke="#000000" d="M810.4054,-215.8314C828.8577,-206.4089 851.5797,-194.8062 871.1982,-184.7883"/>
<polygon fill="#000000" stroke="#000000" points="872.942,-187.8278 880.2563,-180.1628 869.7585,-181.5935 872.942,-187.8278"/>
</g>
<!-- n37&#45;&gt;n30 -->
<g id="edge39" class="edge">
<title>n37&#45;&gt;n30</title>
<path fill="none" stroke="#000000" d="M944.8446,-143.8314C962.4097,-132.834 984.7188,-118.8666 1002.2104,-107.9154"/>
<polygon fill="#000000" stroke="#000000" points="1004.2491,-110.7684 1010.8676,-102.4952 1000.5344,-104.8353 1004.2491,-110.7684"/>
</g>
<!-- n32 -->
<g id="node28" class="node">
<title>n32</title>
<polygon fill="none" stroke="#000000" points="1170.6671,-324 348.9833,-324 348.9833,-288 1170.6671,-288 1170.6671,-324"/>
<text text-anchor="middle" x="759.8252" y="-301.8" font-family="Times,serif" font-size="14.00" fill="#000000">draft.reads.bx.as100.nm5.bam.mi.bx.molecule.size2000.depth100.starts.breakpoints.tigs.reads.c5_e30000_r0.05.arcs.a0.1_l10.links.scaffolds.fa</text>
</g>
<!-- n32&#45;&gt;n31 -->
<g id="edge25" class="edge">
<title>n32&#45;&gt;n31</title>
<path fill="none" stroke="#000000" d="M763.6103,-287.8314C765.2146,-280.131 767.1222,-270.9743 768.9051,-262.4166"/>
<polygon fill="#000000" stroke="#000000" points="772.3759,-262.9169 770.9891,-252.4133 765.523,-261.4892 772.3759,-262.9169"/>
</g>
<!-- n33&#45;&gt;n32 -->
<g id="edge26" class="edge">
<title>n33&#45;&gt;n32</title>
<path fill="none" stroke="#000000" d="M734.4048,-359.8314C738.161,-351.8771 742.6509,-342.369 746.8049,-333.5723"/>
<polygon fill="#000000" stroke="#000000" points="750.0248,-334.9503 751.13,-324.4133 743.695,-331.9612 750.0248,-334.9503"/>
</g>
<!-- n24&#45;&gt;n23 -->
<g id="edge28" class="edge">
<title>n24&#45;&gt;n23</title>
<path fill="none" stroke="#000000" d="M867.8252,-791.8314C867.8252,-784.131 867.8252,-774.9743 867.8252,-766.4166"/>
<polygon fill="#000000" stroke="#000000" points="871.3253,-766.4132 867.8252,-756.4133 864.3253,-766.4133 871.3253,-766.4132"/>
</g>
<!-- n28 -->
<g id="node31" class="node">
<title>n28</title>
<polygon fill="none" stroke="#000000" points="1110.926,-1116 782.7244,-1116 782.7244,-1080 1110.926,-1080 1110.926,-1116"/>
<text text-anchor="middle" x="946.8252" y="-1093.8" font-family="Times,serif" font-size="14.00" fill="#000000">draft.reads.bx.as100.nm5.bam.mi.bx.molecule.starts.tsv</text>
</g>
<!-- n28&#45;&gt;n25 -->
<g id="edge30" class="edge">
<title>n28&#45;&gt;n25</title>
<path fill="none" stroke="#000000" d="M940.2256,-1079.9555C926.4006,-1042.1556 894.3233,-954.4506 877.9037,-909.5564"/>
<polygon fill="#000000" stroke="#000000" points="881.1836,-908.3344 874.4616,-900.1451 874.6095,-910.7389 881.1836,-908.3344"/>
</g>
<!-- n13 -->
<g id="node32" class="node">
<title>n13</title>
<polygon fill="none" stroke="#000000" points="1285.3997,-972 926.2507,-972 926.2507,-936 1285.3997,-936 1285.3997,-972"/>
<text text-anchor="middle" x="1105.8252" y="-949.8" font-family="Times,serif" font-size="14.00" fill="#000000">draft.reads.bx.as100.nm5.bam.mi.bx.molecule.summary.html</text>
</g>
<!-- n13&#45;&gt;n3 -->
<g id="edge31" class="edge">
<title>n13&#45;&gt;n3</title>
<path fill="none" stroke="#000000" d="M1129.0498,-935.7681C1158.0298,-910.78 1203.8252,-862.9204 1203.8252,-810 1203.8252,-810 1203.8252,-810 1203.8252,-666 1203.8252,-625.8721 1203.0391,-579.4602 1202.4526,-550.416"/>
<polygon fill="#000000" stroke="#000000" points="1205.947,-550.1092 1202.2396,-540.1843 1198.9485,-550.255 1205.947,-550.1092"/>
</g>
<!-- n14&#45;&gt;n20 -->
<g id="edge32" class="edge">
<title>n14&#45;&gt;n20</title>
<path fill="none" stroke="#000000" d="M887.8071,-1223.9243C852.1893,-1213.8675 807.6977,-1201.3052 770.6203,-1190.8363"/>
<polygon fill="#000000" stroke="#000000" points="771.4445,-1187.4322 760.8697,-1188.0831 769.5423,-1194.1688 771.4445,-1187.4322"/>
</g>
<!-- n14&#45;&gt;n28 -->
<g id="edge33" class="edge">
<title>n14&#45;&gt;n28</title>
<path fill="none" stroke="#000000" d="M951.1919,-1223.7623C950.3391,-1199.201 948.813,-1155.2474 947.8097,-1126.3541"/>
<polygon fill="#000000" stroke="#000000" points="951.2983,-1125.9621 947.4533,-1116.0896 944.3025,-1126.2051 951.2983,-1125.9621"/>
</g>
<!-- n14&#45;&gt;n13 -->
<g id="edge34" class="edge">
<title>n14&#45;&gt;n13</title>
<path fill="none" stroke="#000000" d="M994.3575,-1223.9581C1035.0037,-1204.1237 1093.8193,-1168.0119 1119.8252,-1116 1141.3346,-1072.9811 1128.0129,-1015.4686 1116.695,-981.8085"/>
<polygon fill="#000000" stroke="#000000" points="1119.9208,-980.432 1113.2877,-972.1705 1113.321,-982.7652 1119.9208,-980.432"/>
</g>
<!-- n6&#45;&gt;n3 -->
<g id="edge38" class="edge">
<title>n6&#45;&gt;n3</title>
<path fill="none" stroke="#000000" d="M1330.5512,-1439.5668C1338.4768,-1412.3758 1351.8252,-1359.7842 1351.8252,-1314 1351.8252,-1314 1351.8252,-1314 1351.8252,-666 1351.8252,-603.4824 1283.1792,-559.6498 1238.764,-537.8323"/>
<polygon fill="#000000" stroke="#000000" points="1240.2211,-534.6497 1229.6875,-533.5121 1237.2126,-540.9702 1240.2211,-534.6497"/>
</g>
<!-- n8 -->
<g id="node35" class="node">
<title>n8</title>
<polygon fill="none" stroke="#000000" points="1084.2393,-1692 989.4111,-1692 989.4111,-1656 1084.2393,-1656 1084.2393,-1692"/>
<text text-anchor="middle" x="1036.8252" y="-1669.8" font-family="Times,serif" font-size="14.00" fill="#000000">reads.bx.fq.gz</text>
</g>
<!-- n8&#45;&gt;n7 -->
<g id="edge41" class="edge">
<title>n8&#45;&gt;n7</title>
<path fill="none" stroke="#000000" d="M1036.8252,-1655.8314C1036.8252,-1648.131 1036.8252,-1638.9743 1036.8252,-1630.4166"/>
<polygon fill="#000000" stroke="#000000" points="1040.3253,-1630.4132 1036.8252,-1620.4133 1033.3253,-1630.4133 1040.3253,-1630.4132"/>
</g>
<!-- n4 -->
<g id="node36" class="node">
<title>n4</title>
<polygon fill="#d3d3d3" stroke="#000000" points="1108.721,-1764 994.3509,-1764 964.9294,-1728 1079.2995,-1728 1108.721,-1764"/>
<text text-anchor="middle" x="1036.8252" y="-1741.8" font-family="Times,serif" font-size="14.00" fill="#000000">reads.fq.gz</text>
</g>
<!-- n4&#45;&gt;n8 -->
<g id="edge42" class="edge">
<title>n4&#45;&gt;n8</title>
<path fill="none" stroke="#000000" d="M1036.8252,-1727.8314C1036.8252,-1720.131 1036.8252,-1710.9743 1036.8252,-1702.4166"/>
<polygon fill="#000000" stroke="#000000" points="1040.3253,-1702.4132 1036.8252,-1692.4133 1033.3253,-1702.4133 1040.3253,-1702.4132"/>
</g>
</g>
</svg>
