<?xml version="1.0" encoding="UTF-8" standalone="no"?>
<!DOCTYPE svg PUBLIC "-//W3C//DTD SVG 1.1//EN"
 "http://www.w3.org/Graphics/SVG/1.1/DTD/svg11.dtd">
<!-- Generated by graphviz version 2.40.1 (20161225.0304)
 -->
<!-- Title: G Pages: 1 -->
<svg width="901pt" height="1052pt"
 viewBox="0.00 0.00 900.90 1052.00" xmlns="http://www.w3.org/2000/svg" xmlns:xlink="http://www.w3.org/1999/xlink">
<g id="graph0" class="graph" transform="scale(1 1) rotate(0) translate(4 1048)">
<title>G</title>
<polygon fill="#ffffff" stroke="transparent" points="-4,4 -4,-1048 896.902,-1048 896.902,4 -4,4"/>
<!-- n2 -->
<g id="node1" class="node">
<title>n2</title>
<ellipse fill="#d3d3d3" stroke="#000000" cx="120.3122" cy="-18" rx="27" ry="18"/>
<text text-anchor="middle" x="120.3122" y="-13.8" font-family="Times,serif" font-size="14.00" fill="#000000">all</text>
</g>
<!-- n13 -->
<g id="node2" class="node">
<title>n13</title>
<ellipse fill="#d3d3d3" stroke="#000000" cx="193.3122" cy="-90" rx="27" ry="18"/>
<text text-anchor="middle" x="193.3122" y="-85.8" font-family="Times,serif" font-size="14.00" fill="#000000">arcs</text>
</g>
<!-- n13&#45;&gt;n2 -->
<g id="edge1" class="edge">
<title>n13&#45;&gt;n2</title>
<path fill="none" stroke="#000000" d="M178.1865,-75.0816C167.9777,-65.0125 154.3244,-51.5463 142.8429,-40.2221"/>
<polygon fill="#000000" stroke="#000000" points="145.2471,-37.6773 135.6696,-33.147 140.3315,-42.6611 145.2471,-37.6773"/>
</g>
<!-- n6 -->
<g id="node3" class="node">
<title>n6</title>
<polygon fill="#d3d3d3" stroke="#000000" points="498.0308,-1044 414.1673,-1044 392.5936,-1008 476.4571,-1008 498.0308,-1044"/>
<text text-anchor="middle" x="445.3122" y="-1021.8" font-family="Times,serif" font-size="14.00" fill="#000000">draft.fa</text>
</g>
<!-- n5 -->
<g id="node4" class="node">
<title>n5</title>
<polygon fill="none" stroke="#000000" points="555.1165,-972 473.5079,-972 473.5079,-936 555.1165,-936 555.1165,-972"/>
<text text-anchor="middle" x="514.3122" y="-949.8" font-family="Times,serif" font-size="14.00" fill="#000000">draft.fa.bwt</text>
</g>
<!-- n6&#45;&gt;n5 -->
<g id="edge2" class="edge">
<title>n6&#45;&gt;n5</title>
<path fill="none" stroke="#000000" d="M462.7238,-1007.8314C470.8332,-999.3694 480.6278,-989.1489 489.4941,-979.8971"/>
<polygon fill="#000000" stroke="#000000" points="492.274,-982.0549 496.6661,-972.4133 487.2201,-977.2115 492.274,-982.0549"/>
</g>
<!-- n11 -->
<g id="node5" class="node">
<title>n11</title>
<polygon fill="none" stroke="#000000" points="399.8815,-828 324.7428,-828 324.7428,-792 399.8815,-792 399.8815,-828"/>
<text text-anchor="middle" x="362.3122" y="-805.8" font-family="Times,serif" font-size="14.00" fill="#000000">draft.fa.fai</text>
</g>
<!-- n6&#45;&gt;n11 -->
<g id="edge3" class="edge">
<title>n6&#45;&gt;n11</title>
<path fill="none" stroke="#000000" d="M438.3784,-1007.9555C423.8534,-970.1556 390.152,-882.4506 372.901,-837.5564"/>
<polygon fill="#000000" stroke="#000000" points="376.1386,-836.2242 369.2846,-828.1451 369.6044,-838.7351 376.1386,-836.2242"/>
</g>
<!-- n10 -->
<g id="node6" class="node">
<title>n10</title>
<polygon fill="none" stroke="#000000" points="599.8822,-900 458.7422,-900 458.7422,-864 599.8822,-864 599.8822,-900"/>
<text text-anchor="middle" x="529.3122" y="-877.8" font-family="Times,serif" font-size="14.00" fill="#000000">draft.reads.sortbx.bam</text>
</g>
<!-- n5&#45;&gt;n10 -->
<g id="edge4" class="edge">
<title>n5&#45;&gt;n10</title>
<path fill="none" stroke="#000000" d="M518.0973,-935.8314C519.7016,-928.131 521.6092,-918.9743 523.392,-910.4166"/>
<polygon fill="#000000" stroke="#000000" points="526.8629,-910.9169 525.4761,-900.4133 520.01,-909.4892 526.8629,-910.9169"/>
</g>
<!-- n7 -->
<g id="node7" class="node">
<title>n7</title>
<polygon fill="none" stroke="#000000" points="645.703,-684 170.9214,-684 170.9214,-648 645.703,-648 645.703,-684"/>
<text text-anchor="middle" x="408.3122" y="-661.8" font-family="Times,serif" font-size="14.00" fill="#000000">draft.reads.as0.65.nm5.molecule.size2000.trim0.window1000.span20.breaktigs.fa</text>
</g>
<!-- n11&#45;&gt;n7 -->
<g id="edge5" class="edge">
<title>n11&#45;&gt;n7</title>
<path fill="none" stroke="#000000" d="M364.7713,-791.7005C367.5746,-773.2489 372.8912,-744.1235 381.3122,-720 384.4244,-711.0844 388.6901,-701.7559 392.912,-693.4095"/>
<polygon fill="#000000" stroke="#000000" points="396.0513,-694.9594 397.5961,-684.4778 389.852,-691.7083 396.0513,-694.9594"/>
</g>
<!-- n9 -->
<g id="node8" class="node">
<title>n9</title>
<polygon fill="none" stroke="#000000" points="640.3542,-828 418.2702,-828 418.2702,-792 640.3542,-792 640.3542,-828"/>
<text text-anchor="middle" x="529.3122" y="-805.8" font-family="Times,serif" font-size="14.00" fill="#000000">draft.reads.as0.65.nm5.molecule.bed</text>
</g>
<!-- n10&#45;&gt;n9 -->
<g id="edge16" class="edge">
<title>n10&#45;&gt;n9</title>
<path fill="none" stroke="#000000" d="M529.3122,-863.8314C529.3122,-856.131 529.3122,-846.9743 529.3122,-838.4166"/>
<polygon fill="#000000" stroke="#000000" points="532.8123,-838.4132 529.3122,-828.4133 525.8123,-838.4133 532.8123,-838.4132"/>
</g>
<!-- n20 -->
<g id="node10" class="node">
<title>n20</title>
<polygon fill="none" stroke="#000000" points="703.7028,-612 204.9215,-612 204.9215,-576 703.7028,-576 703.7028,-612"/>
<text text-anchor="middle" x="454.3122" y="-589.8" font-family="Times,serif" font-size="14.00" fill="#000000">draft.reads.as0.65.nm5.molecule.size2000.trim0.window1000.span20.breaktigs.fa.bwt</text>
</g>
<!-- n7&#45;&gt;n20 -->
<g id="edge8" class="edge">
<title>n7&#45;&gt;n20</title>
<path fill="none" stroke="#000000" d="M419.9199,-647.8314C425.1099,-639.7079 431.3354,-629.9637 437.0546,-621.0118"/>
<polygon fill="#000000" stroke="#000000" points="440.1137,-622.7246 442.5481,-612.4133 434.2148,-618.9559 440.1137,-622.7246"/>
</g>
<!-- n12 -->
<g id="node11" class="node">
<title>n12</title>
<polygon fill="#d3d3d3" stroke="#000000" points="186.4369,-612 38.2963,-612 .1874,-576 148.3281,-576 186.4369,-612"/>
<text text-anchor="middle" x="93.3122" y="-589.8" font-family="Times,serif" font-size="14.00" fill="#000000">draft.tigmint.fa</text>
</g>
<!-- n7&#45;&gt;n12 -->
<g id="edge9" class="edge">
<title>n7&#45;&gt;n12</title>
<path fill="none" stroke="#000000" d="M329.231,-647.9243C284.4923,-637.6983 228.42,-624.8818 182.1671,-614.3097"/>
<polygon fill="#000000" stroke="#000000" points="182.6812,-610.837 172.1527,-612.0207 181.1213,-617.661 182.6812,-610.837"/>
</g>
<!-- n8 -->
<g id="node9" class="node">
<title>n8</title>
<polygon fill="none" stroke="#000000" points="666.12,-756 390.5044,-756 390.5044,-720 666.12,-720 666.12,-756"/>
<text text-anchor="middle" x="528.3122" y="-733.8" font-family="Times,serif" font-size="14.00" fill="#000000">draft.reads.as0.65.nm5.molecule.size2000.bed</text>
</g>
<!-- n9&#45;&gt;n8 -->
<g id="edge6" class="edge">
<title>n9&#45;&gt;n8</title>
<path fill="none" stroke="#000000" d="M529.0598,-791.8314C528.9529,-784.131 528.8257,-774.9743 528.7069,-766.4166"/>
<polygon fill="#000000" stroke="#000000" points="532.2066,-766.3637 528.5679,-756.4133 525.2072,-766.4609 532.2066,-766.3637"/>
</g>
<!-- n8&#45;&gt;n7 -->
<g id="edge7" class="edge">
<title>n8&#45;&gt;n7</title>
<path fill="none" stroke="#000000" d="M498.0311,-719.8314C482.6824,-710.6221 463.8623,-699.3301 447.4299,-689.4706"/>
<polygon fill="#000000" stroke="#000000" points="448.9593,-686.3066 438.5836,-684.1628 445.3577,-692.3091 448.9593,-686.3066"/>
</g>
<!-- n19 -->
<g id="node12" class="node">
<title>n19</title>
<polygon fill="none" stroke="#000000" points="791.9685,-540 222.6558,-540 222.6558,-504 791.9685,-504 791.9685,-540"/>
<text text-anchor="middle" x="507.3122" y="-517.8" font-family="Times,serif" font-size="14.00" fill="#000000">draft.reads.as0.65.nm5.molecule.size2000.trim0.window1000.span20.breaktigs.reads.bx.sortn.bam</text>
</g>
<!-- n20&#45;&gt;n19 -->
<g id="edge10" class="edge">
<title>n20&#45;&gt;n19</title>
<path fill="none" stroke="#000000" d="M467.6863,-575.8314C473.7284,-567.6232 480.9884,-557.7606 487.6342,-548.7323"/>
<polygon fill="#000000" stroke="#000000" points="490.6484,-550.5415 493.758,-540.4133 485.0111,-546.3918 490.6484,-550.5415"/>
</g>
<!-- n3 -->
<g id="node18" class="node">
<title>n3</title>
<ellipse fill="#d3d3d3" stroke="#000000" cx="93.3122" cy="-450" rx="35.8147" ry="18"/>
<text text-anchor="middle" x="93.3122" y="-445.8" font-family="Times,serif" font-size="14.00" fill="#000000">tigmint</text>
</g>
<!-- n12&#45;&gt;n3 -->
<g id="edge18" class="edge">
<title>n12&#45;&gt;n3</title>
<path fill="none" stroke="#000000" d="M93.3122,-575.7623C93.3122,-551.201 93.3122,-507.2474 93.3122,-478.3541"/>
<polygon fill="#000000" stroke="#000000" points="96.8123,-478.0896 93.3122,-468.0896 89.8123,-478.0897 96.8123,-478.0896"/>
</g>
<!-- n18 -->
<g id="node13" class="node">
<title>n18</title>
<polygon fill="none" stroke="#000000" points="851.5378,-468 163.0866,-468 163.0866,-432 851.5378,-432 851.5378,-468"/>
<text text-anchor="middle" x="507.3122" y="-445.8" font-family="Times,serif" font-size="14.00" fill="#000000">draft.reads.as0.65.nm5.molecule.size2000.trim0.window1000.span20.breaktigs.reads.c5_e30000_r0.05.arcs_original.gv</text>
</g>
<!-- n19&#45;&gt;n18 -->
<g id="edge11" class="edge">
<title>n19&#45;&gt;n18</title>
<path fill="none" stroke="#000000" d="M507.3122,-503.8314C507.3122,-496.131 507.3122,-486.9743 507.3122,-478.4166"/>
<polygon fill="#000000" stroke="#000000" points="510.8123,-478.4132 507.3122,-468.4133 503.8123,-478.4133 510.8123,-478.4132"/>
</g>
<!-- n17 -->
<g id="node17" class="node">
<title>n17</title>
<polygon fill="none" stroke="#000000" points="842.5583,-396 172.066,-396 172.066,-360 842.5583,-360 842.5583,-396"/>
<text text-anchor="middle" x="507.3122" y="-373.8" font-family="Times,serif" font-size="14.00" fill="#000000">draft.reads.as0.65.nm5.molecule.size2000.trim0.window1000.span20.breaktigs.reads.c5_e30000_r0.05.arcs.links.tsv</text>
</g>
<!-- n18&#45;&gt;n17 -->
<g id="edge15" class="edge">
<title>n18&#45;&gt;n17</title>
<path fill="none" stroke="#000000" d="M507.3122,-431.8314C507.3122,-424.131 507.3122,-414.9743 507.3122,-406.4166"/>
<polygon fill="#000000" stroke="#000000" points="510.8123,-406.4132 507.3122,-396.4133 503.8123,-406.4133 510.8123,-406.4132"/>
</g>
<!-- n15 -->
<g id="node14" class="node">
<title>n15</title>
<polygon fill="none" stroke="#000000" points="852.2,-252 134.4244,-252 134.4244,-216 852.2,-216 852.2,-252"/>
<text text-anchor="middle" x="493.3122" y="-229.8" font-family="Times,serif" font-size="14.00" fill="#000000">draft.reads.as0.65.nm5.molecule.size2000.trim0.window1000.span20.breaktigs.reads.c5_e30000_r0.05.arcs.a0.1_l10.links.fa</text>
</g>
<!-- n21 -->
<g id="node15" class="node">
<title>n21</title>
<polygon fill="#d3d3d3" stroke="#000000" points="476.6673,-180 289.9816,-180 241.957,-144 428.6428,-144 476.6673,-180"/>
<text text-anchor="middle" x="359.3122" y="-157.8" font-family="Times,serif" font-size="14.00" fill="#000000">draft.tigmint.arcs.fa</text>
</g>
<!-- n15&#45;&gt;n21 -->
<g id="edge12" class="edge">
<title>n15&#45;&gt;n21</title>
<path fill="none" stroke="#000000" d="M459.4983,-215.8314C442.0415,-206.4516 420.5635,-194.9112 401.977,-184.9244"/>
<polygon fill="#000000" stroke="#000000" points="403.5808,-181.8129 393.1152,-180.1628 400.2675,-187.9792 403.5808,-181.8129"/>
</g>
<!-- n21&#45;&gt;n13 -->
<g id="edge17" class="edge">
<title>n21&#45;&gt;n13</title>
<path fill="none" stroke="#000000" d="M317.4234,-143.8314C288.9777,-131.4935 251.913,-115.4172 225.7186,-104.0558"/>
<polygon fill="#000000" stroke="#000000" points="226.8191,-100.7181 216.2521,-99.9499 224.0336,-107.1401 226.8191,-100.7181"/>
</g>
<!-- n16 -->
<g id="node16" class="node">
<title>n16</title>
<polygon fill="none" stroke="#000000" points="892.9919,-324 121.6325,-324 121.6325,-288 892.9919,-288 892.9919,-324"/>
<text text-anchor="middle" x="507.3122" y="-301.8" font-family="Times,serif" font-size="14.00" fill="#000000">draft.reads.as0.65.nm5.molecule.size2000.trim0.window1000.span20.breaktigs.reads.c5_e30000_r0.05.arcs.a0.1_l10.links.scaffolds.fa</text>
</g>
<!-- n16&#45;&gt;n15 -->
<g id="edge13" class="edge">
<title>n16&#45;&gt;n15</title>
<path fill="none" stroke="#000000" d="M503.7794,-287.8314C502.2821,-280.131 500.5016,-270.9743 498.8376,-262.4166"/>
<polygon fill="#000000" stroke="#000000" points="502.237,-261.5614 496.8925,-252.4133 495.3657,-262.8975 502.237,-261.5614"/>
</g>
<!-- n17&#45;&gt;n16 -->
<g id="edge14" class="edge">
<title>n17&#45;&gt;n16</title>
<path fill="none" stroke="#000000" d="M507.3122,-359.8314C507.3122,-352.131 507.3122,-342.9743 507.3122,-334.4166"/>
<polygon fill="#000000" stroke="#000000" points="510.8123,-334.4132 507.3122,-324.4133 503.8123,-334.4133 510.8123,-334.4132"/>
</g>
<!-- n3&#45;&gt;n2 -->
<g id="edge22" class="edge">
<title>n3&#45;&gt;n2</title>
<path fill="none" stroke="#000000" d="M93.3122,-431.8146C93.3122,-404.4983 93.3122,-351.25 93.3122,-306 93.3122,-306 93.3122,-306 93.3122,-162 93.3122,-120.9969 104.0183,-74.534 111.9472,-45.7459"/>
<polygon fill="#000000" stroke="#000000" points="115.3549,-46.558 114.7178,-35.9823 108.6208,-44.647 115.3549,-46.558"/>
</g>
<!-- n14 -->
<g id="node19" class="node">
<title>n14</title>
<polygon fill="none" stroke="#000000" points="778.7263,-756 683.8981,-756 683.8981,-720 778.7263,-720 778.7263,-756"/>
<text text-anchor="middle" x="731.3122" y="-733.8" font-family="Times,serif" font-size="14.00" fill="#000000">reads.bx.fq.gz</text>
</g>
<!-- n14&#45;&gt;n19 -->
<g id="edge19" class="edge">
<title>n14&#45;&gt;n19</title>
<path fill="none" stroke="#000000" d="M735.1176,-719.8708C740.8957,-686.9178 747.7722,-616.841 712.3122,-576 700.2681,-562.1283 666.4437,-550.8637 629.6573,-542.2824"/>
<polygon fill="#000000" stroke="#000000" points="630.2628,-538.8311 619.7379,-540.0462 628.7233,-545.6598 630.2628,-538.8311"/>
</g>
<!-- n4 -->
<g id="node20" class="node">
<title>n4</title>
<polygon fill="#d3d3d3" stroke="#000000" points="744.208,-972 629.8379,-972 600.4164,-936 714.7865,-936 744.208,-972"/>
<text text-anchor="middle" x="672.3122" y="-949.8" font-family="Times,serif" font-size="14.00" fill="#000000">reads.fq.gz</text>
</g>
<!-- n4&#45;&gt;n10 -->
<g id="edge20" class="edge">
<title>n4&#45;&gt;n10</title>
<path fill="none" stroke="#000000" d="M636.2272,-935.8314C617.5133,-926.4089 594.4689,-914.8062 574.5722,-904.7883"/>
<polygon fill="#000000" stroke="#000000" points="575.8913,-901.5339 565.3856,-900.1628 572.7433,-907.7861 575.8913,-901.5339"/>
</g>
<!-- n4&#45;&gt;n14 -->
<g id="edge21" class="edge">
<title>n4&#45;&gt;n14</title>
<path fill="none" stroke="#000000" d="M677.241,-935.9555C687.5443,-898.235 711.4218,-810.8188 723.7078,-765.8399"/>
<polygon fill="#000000" stroke="#000000" points="727.0972,-766.7139 726.3559,-756.1451 720.3445,-764.8694 727.0972,-766.7139"/>
</g>
</g>
</svg>
